<svg width="70" height="70" viewBox="0 0 70 70" fill="none" xmlns="http://www.w3.org/2000/svg">
<path d="M17.5 17.5C27.165 17.5 35 9.66498 35 0C35 9.66498 42.835 17.5 52.5 17.5C62.165 17.5 70 9.66498 70 0H35H0C0 9.66498 7.83502 17.5 17.5 17.5Z" fill="white"/>
<path fill-rule="evenodd" clip-rule="evenodd" d="M17.5 52.5C7.83502 52.5 0 60.335 0 70H35H70C70 60.335 62.165 52.5 52.5 52.5C62.165 52.5 70 44.665 70 35C70 34.3428 69.9638 33.694 69.8932 33.0556C68.9259 24.3057 61.5077 17.5 52.5 17.5C43.4923 17.5 36.0741 24.3057 35.1068 33.0556C35.0362 33.694 35 34.3428 35 35C35 34.3428 34.9638 33.694 34.8932 33.0556C33.9259 24.3057 26.5077 17.5 17.5 17.5C8.49226 17.5 1.07406 24.3057 0.106806 33.0556C0.0362314 33.694 0 34.3428 0 35C0 44.665 7.83502 52.5 17.5 52.5ZM17.5 52.5C27.165 52.5 35 44.665 35 35C35 44.665 42.835 52.5 52.5 52.5C42.835 52.5 35 60.335 35 70C35 60.335 27.165 52.5 17.5 52.5ZM17.5 19.4444C25.4326 19.4444 31.9783 25.3822 32.9352 33.0556H2.06479C3.02165 25.3822 9.56741 19.4444 17.5 19.4444ZM52.5 19.4444C60.4326 19.4444 66.9783 25.3822 67.9352 33.0556H37.0648C38.0216 25.3822 44.5674 19.4444 52.5 19.4444Z" fill="#F4AB1D"/>
</svg>
