<svg width="124" height="124" viewBox="0 0 124 124" fill="none" xmlns="http://www.w3.org/2000/svg">
<path d="M31 93C31 75.8792 17.1208 62 -2.71011e-06 62C17.1208 62 31 48.1208 31 31C31 13.8792 17.1208 2.05299e-07 -5.42021e-06 9.53674e-07L-2.71011e-06 62L0 124C17.1208 124 31 110.121 31 93Z" fill="white"/>
<path fill-rule="evenodd" clip-rule="evenodd" d="M93 93C93 110.121 106.879 124 124 124L124 62L124 -4.46654e-06C106.879 -3.71816e-06 93 13.8792 93 31C93 13.8792 79.1208 -2.50481e-06 62 -1.75643e-06C60.8357 -1.70554e-06 59.6865 0.0641717 58.5555 0.189194C43.0557 1.90261 31 15.0434 31 31C31 46.9566 43.0557 60.0974 58.5556 61.8108C59.6865 61.9358 60.8357 62 62 62C60.8357 62 59.6865 62.0642 58.5556 62.1892C43.0557 63.9026 31 77.0434 31 93C31 108.957 43.0557 122.097 58.5556 123.811C59.6865 123.936 60.8357 124 62 124C79.1208 124 93 110.121 93 93ZM93 93C93 75.8792 79.1208 62 62 62C79.1208 62 93 48.1208 93 31C93 48.1208 106.879 62 124 62C106.879 62 93 75.8792 93 93ZM34.4444 93C34.4444 78.948 44.9627 67.3526 58.5556 65.6576L58.5556 120.342C44.9627 118.647 34.4444 107.052 34.4444 93ZM34.4444 31C34.4444 16.948 44.9627 5.35264 58.5555 3.65763L58.5556 58.3424C44.9627 56.6474 34.4444 45.052 34.4444 31Z" fill="#F4AB1D"/>
</svg>
