<svg width="124" height="124" viewBox="0 0 124 124" fill="none" xmlns="http://www.w3.org/2000/svg">
<path d="M31 31C48.1208 31 62 17.1208 62 0C62 17.1208 75.8792 31 93 31C110.121 31 124 17.1208 124 0H62H0C0 17.1208 13.8792 31 31 31Z" fill="white"/>
<path fill-rule="evenodd" clip-rule="evenodd" d="M31 93C13.8792 93 0 106.879 0 124H62H124C124 106.879 110.121 93 93 93C110.121 93 124 79.1208 124 62C124 60.8357 123.936 59.6865 123.811 58.5556C122.097 43.0557 108.957 31 93 31C77.0434 31 63.9026 43.0557 62.1892 58.5556C62.0642 59.6865 62 60.8357 62 62C62 60.8357 61.9358 59.6865 61.8108 58.5556C60.0974 43.0557 46.9566 31 31 31C15.0434 31 1.90262 43.0557 0.189199 58.5556C0.0641814 59.6865 0 60.8357 0 62C0 79.1208 13.8792 93 31 93ZM31 93C48.1208 93 62 79.1208 62 62C62 79.1208 75.8792 93 93 93C75.8792 93 62 106.879 62 124C62 106.879 48.1208 93 31 93ZM31 34.4444C45.052 34.4444 56.6474 44.9627 58.3424 58.5556H3.65763C5.35264 44.9627 16.948 34.4444 31 34.4444ZM93 34.4444C107.052 34.4444 118.647 44.9627 120.342 58.5556H65.6576C67.3526 44.9627 78.948 34.4444 93 34.4444Z" fill="#F4AB1D"/>
</svg>
