<svg width="47" height="42" viewBox="0 0 47 42" fill="none" xmlns="http://www.w3.org/2000/svg">
<path d="M15.288 33.9609C15.3211 33.9234 15.3542 33.8856 15.3873 33.8477C15.5201 33.6959 15.6539 33.543 15.7969 33.403L15.7969 33.403C15.9481 33.2552 16.1144 33.17 16.291 33.1701C16.4678 33.1702 16.6336 33.2559 16.7836 33.4053C17.537 34.1552 18.2851 34.9094 19.0278 35.669C19.1608 35.805 19.2402 35.9613 19.2475 36.1243C19.2548 36.2889 19.1878 36.4456 19.0567 36.5783L19.0565 36.5785C18.4538 37.185 17.8444 37.7847 17.2354 38.3841C17.0023 38.6135 16.7693 38.8428 16.5367 39.0725L16.5075 39.1013H16.4665H16.1347H16.097L16.0687 39.0764C16.0078 39.0229 15.9449 38.9693 15.8814 38.9151C15.7427 38.797 15.6009 38.6762 15.4702 38.5475L15.4702 38.5474C14.8401 37.9252 14.2144 37.2988 13.5916 36.6697L13.5915 36.6696C13.4221 36.4983 13.3182 36.3271 13.3174 36.1414C13.3165 35.9552 13.4193 35.7849 13.5884 35.6159C13.7783 35.4261 13.9761 35.2423 14.1709 35.0613C14.2283 35.008 14.2854 34.9549 14.342 34.902C11.0483 30.1361 10.3781 25.091 12.2646 19.6973C12.2072 19.7585 12.149 19.8192 12.0898 19.8784M15.288 33.9609L12.0898 19.8784M15.288 33.9609C11.4486 28.8145 11.7953 21.744 15.0335 17.3243C15.5743 17.5529 16.1104 17.6547 16.628 17.5988C17.1703 17.5402 17.6852 17.3093 18.1577 16.8821C18.6874 16.4035 18.9846 15.8623 19.0797 15.278C19.1708 14.7182 19.075 14.1269 18.8333 13.5229C23.7919 10.0419 30.7401 10.2303 35.4175 13.7632C35.3793 13.8021 35.3408 13.841 35.3023 13.8801C35.1583 14.0258 35.013 14.1729 34.8731 14.3239L34.873 14.3239C34.7468 14.4605 34.6722 14.6174 34.6673 14.78C34.6624 14.9442 34.729 15.101 34.8603 15.2338C35.6306 16.0131 36.409 16.7843 37.1935 17.5492C37.3222 17.6749 37.476 17.7451 37.6353 17.7472C37.7952 17.7492 37.9492 17.6825 38.077 17.5557L38.077 17.5557C38.6844 16.9523 39.2848 16.3423 39.8848 15.7326C40.0897 15.5244 40.2946 15.3162 40.4997 15.1084L40.6026 15.2136V14.9684V14.6366V14.6037L40.583 14.5772C40.5633 14.5505 40.5458 14.5248 40.5271 14.4974C40.5153 14.4801 40.5031 14.4621 40.4895 14.4427C40.4566 14.3959 40.4195 14.3465 40.3749 14.3018C40.3748 14.3017 40.3747 14.3017 40.3746 14.3016L40.2766 14.203C39.5608 13.4829 38.8442 12.7619 38.1203 12.049L38.1202 12.049C37.9731 11.9042 37.8136 11.8194 37.6424 11.8194C37.4712 11.8194 37.3116 11.9042 37.1641 12.0489L37.1639 12.049C36.9571 12.2526 36.7605 12.4681 36.5748 12.6716C36.5195 12.7323 36.465 12.792 36.4116 12.8499C31.6005 9.53118 26.5424 8.87491 21.1313 10.8337C21.3563 10.6093 21.5819 10.3852 21.8075 10.161C22.3814 9.59078 22.9558 9.01997 23.5229 8.44283L23.523 8.44277C23.6092 8.35492 23.6764 8.30379 23.7464 8.2795C23.8135 8.25622 23.8955 8.25353 24.0188 8.28956L24.0189 8.28959C24.7777 8.51029 25.5618 8.14931 25.941 7.46973L25.9411 7.46965C26.3185 6.79192 26.1956 5.93363 25.6423 5.39448C25.0775 4.84379 24.2013 4.74469 23.5313 5.15836C22.869 5.56616 22.5469 6.36683 22.788 7.11548L22.8831 7.08483L22.788 7.11548C22.8194 7.21314 22.8218 7.27523 22.8086 7.32468C22.7951 7.37499 22.7617 7.42711 22.691 7.4973L22.691 7.49735C21.5382 8.64443 20.389 9.79528 19.2399 10.946C18.802 11.3845 18.3641 11.823 17.9261 12.2613C17.8859 12.3008 17.8449 12.3366 17.8028 12.3734C17.7996 12.3762 17.7964 12.379 17.7931 12.3818C17.1501 12.0751 16.5365 11.9359 15.9699 11.9777C15.3839 12.021 14.8549 12.2575 14.4033 12.6902L14.4033 12.6902C13.845 13.2254 13.5388 13.8106 13.4655 14.4324C13.3949 15.0322 13.5422 15.6553 13.8715 16.2876C13.5571 16.6031 13.2434 16.9182 12.93 17.2329C11.5897 18.579 10.2564 19.918 8.91628 21.2496C8.90204 21.2633 8.86359 21.2816 8.80262 21.2903C8.74449 21.2985 8.68544 21.2951 8.64605 21.2841L8.64553 21.2839C7.86852 21.0708 7.07486 21.3577 6.65706 22.0348L6.65704 22.0349C6.24356 22.7054 6.3405 23.5826 6.89148 24.1468C7.44341 24.7127 8.30954 24.8301 8.9955 24.434L8.99559 24.434C9.68251 24.0364 10.0195 23.2408 9.78268 22.467L15.288 33.9609ZM12.0898 19.8784L12.0898 19.8784L12.0191 19.8079L12.0897 19.8785C12.0897 19.8784 12.0897 19.8784 12.0898 19.8784ZM17.8416 14.7918C17.8415 13.9192 17.1431 13.2166 16.2824 13.219L17.8416 14.7918ZM17.8416 14.7918C17.8407 15.6676 17.1497 16.3528 16.2739 16.3461C15.4189 16.3395 14.7272 15.6506 14.7197 14.799C14.7122 13.9472 15.4292 13.2224 16.2823 13.219L17.8416 14.7918ZM9.90066 22.0559C9.90072 22.0559 9.90078 22.0558 9.90084 22.0557L9.83074 21.9844L9.90066 22.0559ZM12.3732 19.4322C12.3655 19.4406 12.3578 19.4491 12.3501 19.4575L12.4373 19.5104C12.467 19.4284 12.4972 19.3463 12.5281 19.2641C12.4762 19.3199 12.4247 19.376 12.3732 19.4322ZM24.4276 6.1701L24.4276 6.1701C24.6813 6.16501 24.8988 6.37651 24.8995 6.63188C24.9003 6.88838 24.6875 7.09952 24.4312 7.0966L24.4309 7.0966C24.1836 7.09442 23.9856 6.9001 23.9783 6.64996L23.9783 6.6498C23.9702 6.38681 24.1712 6.17518 24.4276 6.1701ZM8.59538 22.9232L8.59538 22.9232C8.60047 23.1693 8.42364 23.3538 8.18119 23.3595L8.18099 23.3595C7.92491 23.3661 7.71498 23.1602 7.71498 22.8954C7.71498 22.7642 7.75963 22.6614 7.83044 22.5918C7.90134 22.5221 8.00579 22.4784 8.1385 22.4792C8.3942 22.4814 8.5903 22.6751 8.59538 22.9232ZM16.9854 36.7847C16.7557 37.0153 16.5262 37.2456 16.3024 37.4705C15.8979 37.0639 15.474 36.6384 15.0466 36.2095L14.9409 36.1035L16.2866 34.7531C16.7405 35.2061 17.2039 35.6688 17.6513 36.1161C17.4324 36.3361 17.2088 36.5605 16.9854 36.7847ZM36.3296 14.775C36.5411 14.5631 36.7621 14.342 36.9885 14.1154C37.2143 13.8894 37.4456 13.6579 37.6785 13.4246C37.8908 13.6368 38.1079 13.8537 38.3255 14.0711C38.5505 14.2959 38.7759 14.5211 38.9967 14.7419L37.6414 16.0876C37.4407 15.8868 37.2312 15.6771 37.0193 15.4651C36.7894 15.235 36.5568 15.0021 36.3296 14.775Z" fill="white" stroke="white" stroke-width="0.2"/>
<path d="M26.9384 29.9123L26.9384 29.9124C28.2391 30.7856 29.9992 30.5937 31.0708 29.4608L30.9981 29.3921L31.0708 29.4608C32.1563 28.3131 32.2539 26.5829 31.3264 25.3124L31.2525 25.3664L31.3264 25.3124C30.5581 24.2601 28.8155 23.4398 26.9859 24.5094C24.7264 22.25 22.4722 19.9958 20.2092 17.732L20.1383 17.6611L20.0676 17.7322L19.2533 18.5518L19.183 18.6225L19.2535 18.693L19.254 18.6934C21.5181 20.9576 23.7699 23.2094 26.0252 25.4637C25.6131 26.4082 25.4744 27.2673 25.6189 28.0159C25.7672 28.7839 26.2112 29.424 26.9384 29.9123ZM30.6976 27.2516L30.6976 27.2517C30.6867 28.3181 29.8023 29.1965 28.7377 29.1998H28.7376C27.6564 29.204 26.7741 28.3199 26.7749 27.2324C26.7765 26.1367 27.6423 25.2763 28.7423 25.278C29.8268 25.2797 30.7095 26.1712 30.6976 27.2516Z" fill="#F4AB1D" stroke="#F4AB1D" stroke-width="0.2"/>
<path d="M37.0746 27.9918C36.9412 27.9223 36.8049 27.7716 36.75 27.6325C36.0638 25.8861 35.3944 24.1332 34.7265 22.3788L34.7265 22.3787C34.6182 22.0944 34.4591 21.8595 34.1308 21.7287L34.1308 21.7287C29.6267 19.9362 25.1244 18.1374 20.6238 16.3342L20.6238 16.3341C20.4428 16.2617 20.27 16.2359 20.1018 16.2733C19.9339 16.3107 19.7894 16.4069 19.6573 16.5441C19.1355 17.0844 18.6086 17.6183 18.0655 18.1332C17.9062 18.2841 17.8062 18.446 17.7737 18.6308C17.7415 18.8135 17.7789 18.9985 17.8556 19.1893C19.6456 23.6472 21.4302 28.1068 23.2059 32.57L23.206 32.5702C23.2713 32.734 23.357 32.8686 23.4711 32.9783C23.5851 33.0878 23.7213 33.1665 23.88 33.2269L23.8803 33.227C25.6352 33.8911 27.3881 34.5614 29.1338 35.2477C29.2722 35.3022 29.4224 35.4392 29.4923 35.5731C29.7826 36.1289 30.0607 36.6851 30.3394 37.2428C30.5631 37.6901 30.7872 38.1383 31.0184 38.588L31.0184 38.5881C31.0731 38.6943 31.1464 38.7855 31.2171 38.8661C31.2456 38.8986 31.2725 38.9281 31.2982 38.9563C31.3406 39.0029 31.3801 39.0463 31.4194 39.0947L31.4644 39.1502H31.5359H31.8676H31.9218L31.9635 39.1155C31.9978 39.087 32.0355 39.0572 32.0748 39.0261C32.1665 38.9536 32.2669 38.8743 32.3524 38.7888C34.9993 36.1455 37.6435 33.5014 40.2869 30.8545C40.3725 30.7689 40.4523 30.6681 40.525 30.5761C40.5561 30.5368 40.5859 30.4991 40.6144 30.4649L40.6491 30.4232V30.369V30.0371V29.966L40.594 29.921C40.5462 29.882 40.5038 29.8432 40.4582 29.8017C40.4291 29.7751 40.3988 29.7474 40.365 29.7178C40.3482 29.7031 40.331 29.6883 40.3132 29.6735L40.3518 29.6543L40.0888 29.5189C39.6395 29.2877 39.1913 29.0634 38.7439 28.8396C38.1863 28.5605 37.63 28.2822 37.0747 27.9919L37.0746 27.9918ZM29.5381 33.9432L29.5379 33.9431C28.8321 33.6672 28.1264 33.3953 27.4212 33.1235C26.4995 32.7683 25.5785 32.4134 24.6589 32.0504C24.6057 32.0292 24.5437 31.9884 24.488 31.9349C24.4319 31.8811 24.3911 31.8231 24.3715 31.774L24.3713 31.7737C23.4418 29.4684 22.5171 27.1621 21.5925 24.8556C20.8203 22.9295 20.0481 21.0033 19.2729 19.0774L19.2728 19.0774C19.2289 18.9684 19.2377 18.9169 19.2505 18.8882C19.2664 18.8524 19.3064 18.8099 19.4027 18.752L19.4186 18.7424L19.4318 18.7292L20.246 17.9095L20.264 17.8914L20.275 17.8683C20.3175 17.779 20.3567 17.7545 20.3878 17.746C20.428 17.735 20.4986 17.7382 20.6248 17.7888C24.8053 19.4705 28.9886 21.1434 33.1755 22.8084C33.2958 22.8563 33.3797 22.9118 33.444 22.9794C33.5087 23.0474 33.5607 23.1351 33.6069 23.2576C34.2006 24.84 34.8111 26.4169 35.4268 27.9897L35.4269 27.9899C35.467 28.0919 35.4745 28.1523 35.4666 28.1979C35.4591 28.2411 35.4335 28.2944 35.3547 28.372L35.3544 28.3723C33.5162 30.1954 31.6869 32.0272 29.8622 33.8635C29.7928 33.9333 29.7472 33.96 29.7101 33.9695C29.6757 33.9783 29.6266 33.9779 29.5381 33.9432ZM21.4531 24.9109C20.6809 22.9848 19.9086 21.0587 19.1337 19.1334L24.6038 32.1899C24.454 32.1305 24.2916 31.978 24.2322 31.8298C23.3027 29.5246 22.3779 27.2178 21.4531 24.9109ZM37.2016 29.6026C37.7087 29.8562 38.2221 30.113 38.7351 30.3703C37.5928 31.5122 36.449 32.6559 35.3035 33.8014C34.1592 34.9457 33.0132 36.0916 31.8652 37.2392C31.5929 36.6954 31.3111 36.1328 31.0298 35.5713C30.9307 35.3735 30.8316 35.1757 30.7331 34.979C32.6551 33.0596 34.5582 31.1582 36.4777 29.2405C36.7171 29.3603 36.9586 29.4811 37.2016 29.6026Z" fill="white" stroke="white" stroke-width="0.3"/>
<path d="M36.6985 2.22215C36.0941 2.22612 35.5824 1.72803 35.5724 1.12695C35.5624 0.512012 36.0831 -0.00686454 36.7026 6.86888e-05C37.3081 0.00600059 37.8118 0.512012 37.8097 1.11309C37.8088 1.71416 37.3031 2.21819 36.6985 2.22215Z" fill="#F4AB1D"/>
<path d="M3.12872 27.9681C2.52523 27.978 2.00753 27.484 1.99157 26.8838C1.97561 26.2698 2.49132 25.7451 3.11076 25.7461C3.71624 25.7461 4.22396 26.2471 4.22895 26.8482C4.23393 27.4492 3.7332 27.9583 3.12872 27.9681Z" fill="#F4AB1D"/>
<path d="M4.97386 4.98135C4.56191 4.97936 4.22076 4.62981 4.23273 4.22085C4.2447 3.82575 4.58086 3.50194 4.97886 3.50392C5.39082 3.50589 5.73295 3.85546 5.71999 4.26343C5.70801 4.65853 5.37186 4.98234 4.97386 4.98135Z" fill="#F4AB1D"/>
<path d="M1.2581 13.1377C0.846136 13.1457 0.498013 12.804 0.500009 12.394C0.502003 11.999 0.831175 11.6673 1.22918 11.6603C1.64113 11.6523 1.99026 11.994 1.98727 12.4029C1.98427 12.798 1.6561 13.1298 1.2581 13.1377Z" fill="white"/>
<path d="M44.6575 10.544C44.2456 10.5529 43.8964 10.2113 43.8984 9.80135C43.9005 9.40614 44.2286 9.07444 44.6266 9.06658C45.0386 9.05758 45.3877 9.3993 45.3856 9.80819C45.3837 10.2033 45.0556 10.5351 44.6575 10.544Z" fill="white"/>
<path d="M44.6451 25.3458C44.6611 24.9508 45.0022 24.6308 45.3992 24.6368C45.8112 24.6428 46.1493 24.9973 46.1323 25.4043C46.1164 25.7994 45.7743 26.1202 45.3772 26.1142C44.9653 26.1084 44.6292 25.7547 44.6451 25.3458Z" fill="#F4AB1D"/>
</svg>
