<svg width="55" height="45" viewBox="0 0 55 45" fill="none" xmlns="http://www.w3.org/2000/svg">
<path d="M41.3795 36.9575L41.2842 37.0354C41.043 36.8336 40.8673 36.6251 40.8795 36.3831C40.8857 36.2609 40.9392 36.1513 41.0192 36.0517C41.0984 35.953 41.2094 35.8568 41.345 35.7585L41.3451 35.7585L41.3709 35.7398C41.7504 35.4653 42.1262 35.1935 42.4942 34.8909C42.1564 34.8909 41.8186 34.8909 41.4809 34.891C40.0644 34.8911 38.648 34.8912 37.2323 34.8892C37.0873 34.8892 36.9127 34.8883 36.7503 34.8441M41.3795 36.9575L36.8809 33.7319L36.8634 33.5829C36.7021 33.6019 36.5603 33.6582 36.4527 33.7583C36.3441 33.8592 36.2819 33.9938 36.2624 34.1474L36.2624 34.1475C36.2421 34.3091 36.2713 34.4625 36.3604 34.5894C36.4489 34.7155 36.5853 34.7994 36.7503 34.8441M41.3795 36.9575V37.0687H41.7938H41.8423L41.8816 37.0403C42.0897 36.89 42.298 36.7397 42.5063 36.5895C43.2588 36.0467 44.0117 35.5037 44.76 34.9554C44.8958 34.856 45.0215 34.7333 45.1376 34.62C45.1866 34.5722 45.2339 34.526 45.2796 34.484L45.3279 34.4394V34.3736V34.0558V33.9984L45.2896 33.9557C45.2737 33.9379 45.2614 33.9224 45.2467 33.9038C45.2366 33.8911 45.2255 33.8771 45.2113 33.8599C45.1813 33.8235 45.1426 33.7802 45.0925 33.7439L45.0924 33.7438C44.9587 33.647 44.825 33.5501 44.6913 33.4532C43.7866 32.7976 42.8808 32.1411 41.9651 31.497C41.965 31.497 41.965 31.4969 41.9649 31.4969L41.8786 31.6196C41.6352 31.4478 41.3168 31.5235 41.1479 31.7453L41.3795 36.9575ZM36.7503 34.8441C36.7502 34.844 36.7502 34.844 36.7501 34.844L36.7896 34.6993L36.7504 34.8441C36.7503 34.8441 36.7503 34.8441 36.7503 34.8441ZM42.2519 33.35C42.3539 33.4242 42.4559 33.4984 42.5579 33.5725L41.665 32.9232C41.8604 33.0655 42.0557 33.2075 42.251 33.3494L42.2518 33.35L42.2519 33.35Z" fill="white" stroke="white" stroke-width="0.3"/>
<path d="M31.6005 34.1039C38.9417 31.9524 43.3554 25.3476 42.1468 18.3322C41.1375 12.4729 36.0695 7.75267 29.7109 6.74793C29.4821 6.71196 29.2528 6.67814 29.0049 6.64156C28.938 6.6317 28.8698 6.62163 28.7998 6.61127C28.8585 6.56898 28.9168 6.52706 28.9746 6.48547M31.6005 34.1039L29.4579 7.88865C29.4579 7.88865 29.4579 7.88864 29.4578 7.88864M31.6005 34.1039C30.0652 34.5535 28.4829 34.7405 26.8749 34.7414M31.6005 34.1039L26.8749 34.7414M28.9746 6.48547C28.9918 6.488 29.0088 6.49052 29.0258 6.49302C29.2743 6.52968 29.5047 6.56367 29.7342 6.59975L29.7343 6.59977C36.1493 7.61343 41.2732 12.3774 42.2946 18.3067C43.5176 25.4055 39.0487 32.0773 31.6427 34.2478L31.6427 34.2478C30.0913 34.7022 28.4946 34.8905 26.875 34.8914C23.0128 34.8933 19.1506 34.8929 15.2884 34.8925C13.7422 34.8924 12.196 34.8923 10.6498 34.8923H10.6496H10.6494H10.6492H10.649H10.6488H10.6486H10.6484H10.6482H10.648H10.6478H10.6476H10.6474H10.6472H10.647H10.6468H10.6466H10.6464H10.6462H10.646H10.6458H10.6456H10.6454H10.6452H10.645H10.6448H10.6446H10.6444H10.6442H10.644H10.6438H10.6436H10.6434H10.6432H10.643H10.6428H10.6426H10.6424H10.6422H10.642H10.6418H10.6416H10.6414H10.6412H10.641H10.6408H10.6406H10.6404H10.6402H10.64H10.6398H10.6396H10.6394H10.6392H10.639H10.6388H10.6386H10.6384H10.6382H10.638H10.6378H10.6376H10.6374H10.6372H10.637H10.6368H10.6366H10.6364H10.6362H10.636H10.6358H10.6356H10.6354H10.6352H10.635H10.6348H10.6346H10.6344H10.6342H10.634H10.6338H10.6336H10.6334H10.6332H10.633H10.6328H10.6326H10.6324H10.6322H10.632H10.6318H10.6316H10.6314H10.6312H10.631H10.6308H10.6306H10.6304H10.6302H10.63H10.6298H10.6296H10.6293H10.6291H10.6289H10.6287H10.6285H10.6283H10.6281H10.6279H10.6277H10.6275H10.6273H10.6271H10.6269H10.6267H10.6265H10.6263H10.6261H10.6259H10.6257H10.6255H10.6253H10.6251H10.6249H10.6247H10.6245H10.6243H10.6241H10.6239H10.6237H10.6235H10.6233H10.6231H10.6229H10.6227H10.6225H10.6223H10.6221H10.6219H10.6217H10.6215H10.6213H10.6211H10.6209H10.6207H10.6205H10.6203H10.6201H10.6199H10.6197H10.6194H10.6192H10.619H10.6188H10.6186H10.6184H10.6182H10.618H10.6178H10.6176H10.6174H10.6172H10.617H10.6168H10.6166H10.6164H10.6162H10.616H10.6158H10.6156H10.6154H10.6152H10.615H10.6148H10.6146H10.6144H10.6142H10.614H10.6138H10.6136H10.6134H10.6132H10.613H10.6128H10.6126H10.6124H10.6122H10.612H10.6118H10.6116H10.6114H10.6112H10.6109H10.6107H10.6105H10.6103H10.6101H10.6099H10.6097H10.6095H10.6093H10.6091H10.6089H10.6087H10.6085H10.6083H10.6081H10.6079H10.6077H10.6075H10.6073H10.6071H10.6069H10.6067H10.6065H10.6063H10.6061H10.6059H10.6057H10.6055H10.6053H10.6051H10.6049H10.6047H10.6045H10.6043H10.6041H10.6039H10.6037H10.6035H10.6032H10.603H10.6028H10.6026H10.6024H10.6022H10.602H10.6018H10.6016H10.6014H10.6012H10.601H10.6008H10.6006H10.6004H10.6002H10.6H10.5998H10.5996H10.5994H10.5992H10.599H10.5988H10.5986H10.5984H10.5982H10.598H10.5978H10.5976H10.5974H10.5972H10.597H10.5968H10.5966H10.5964H10.5962H10.5959H10.5957H10.5955H10.5953H10.5951H10.5949H10.5947H10.5945H10.5943H10.5941H10.5939H10.5937H10.5935H10.5933H10.5931H10.5929H10.5927H10.5925H10.5923H10.5921H10.5919H10.5917H10.5915H10.5913H10.5911H10.5909H10.5907H10.5905H10.5903H10.5901H10.5899H10.5897H10.5895H10.5893H10.5891H10.5889H10.5887H10.5885H10.5882H10.588H10.5878H10.5876H10.5874H10.5872H10.587H10.5868H10.5866H10.5864H10.5862H10.586H10.5858H10.5856H10.5854H10.5852H10.585H10.5848H10.5846H10.5844H10.5842H10.584H10.5838H10.5836H10.5834H10.5832H10.583H10.5828H10.5826H10.5824H10.5822H10.582H10.5818H10.5816H10.5814H10.5812H10.581H10.5808H10.5806H10.5803H10.5801H10.5799H10.5797H10.5795H10.5793H10.5791H10.5789H10.5787H10.5785H10.5783H10.5781H10.5779H10.5777H10.5775H10.5773H10.5771H10.5769H10.5767H10.5765H10.5763H10.5761H10.5759H10.5757H10.5755H10.5753H10.5751H10.5749H10.5747H10.5745H10.5743H10.5741H10.5739H10.5737H10.5735H10.5733H10.5731H10.5729H10.5727H10.5725H10.5723H10.5721H10.5719H10.5717H10.5715H10.5712H10.571H10.5708H10.5706H10.5704H10.5702H10.57H10.5698H10.5696H10.5694H10.5692H10.569H10.5688H10.5686H10.5684H10.5682H10.568H10.5678H10.5676H10.5674H10.5672H10.567H10.5668H10.5666H10.5664H10.5662H10.566H10.5658H10.5656H10.5654H10.5652H10.565H10.5648H10.5646H10.5644H10.5642H10.564H10.5638H10.5636H10.5634H10.5632H10.563H10.5628H10.5626H10.5624H10.5622H10.562H10.5618H10.5616H10.5614H10.5612H10.561H10.5608H10.5606H10.5604H10.5602H10.56H10.5598H10.5596H10.5594H10.5592H10.559H10.5588H10.5585H10.5583H10.5581H10.5579H10.5577H10.5575H10.5573H10.5571H10.5569H10.5567H10.5565H10.5563H10.5561H10.5559H10.5557H10.5555H10.5553H10.5551H10.5549H10.5547H10.5545H10.5543H10.5541H10.5539H10.5537H10.5535H10.5533H10.5531H10.5529H10.5527H10.5525H10.5523H10.5521H10.5519H10.5517H10.5515H10.5513H10.5511H10.5509H10.5507H10.5505H10.5503H10.5501H10.5499H10.5497H10.5495H10.5493H10.5491H10.5489H10.5487H10.5485H10.5483H10.5481H10.5479H10.5477H10.5475H10.5473H10.5471H10.5469H10.5467H10.5465H10.5443L10.5443 34.8922C10.2973 34.8886 10.0823 34.8368 9.92486 34.7249C9.76061 34.6082 9.67227 34.4349 9.67227 34.2271C9.67227 34.0205 9.75574 33.8471 9.92143 33.7315C10.0789 33.6216 10.2952 33.5748 10.5465 33.5748C12.1682 33.5748 13.7897 33.5765 15.411 33.5783C19.221 33.5823 23.0303 33.5864 26.84 33.5679C31.7775 33.5444 35.7166 31.6829 38.5879 27.9885L38.5879 27.9884C42.2092 23.33 41.8745 16.7611 37.8396 12.3868C35.6189 9.97982 32.836 8.46888 29.4578 7.88864M28.9746 6.48547C28.9052 6.47523 28.8343 6.46476 28.7616 6.45395L29.6176 4.36287C29.7924 4.23861 29.9831 4.17976 30.1676 4.19655C30.3535 4.21345 30.5192 4.30601 30.6415 4.45817M28.9746 6.48547C29.0619 6.42272 29.1483 6.36071 29.2338 6.29927C29.6612 5.9924 30.0684 5.7 30.4701 5.4021L30.4703 5.40199C30.633 5.281 30.7396 5.12387 30.7718 4.95147C30.8043 4.77737 30.7578 4.6025 30.6415 4.45817M29.4578 7.88864C29.4276 7.8835 29.3975 7.87873 29.3669 7.87415C29.4713 7.94939 29.5764 8.02461 29.6818 8.09998C29.9443 8.28785 30.2083 8.47671 30.4667 8.66948L30.4668 8.66955C30.6342 8.79458 30.7419 8.95978 30.7715 9.13849C30.8014 9.31896 30.749 9.50027 30.6199 9.64458L30.6196 9.64484C30.3657 9.92727 29.9525 9.9518 29.619 9.71331C28.6271 9.00596 27.6376 8.29587 26.6544 7.578L26.6544 7.57795C26.4612 7.4367 26.3452 7.24589 26.3444 7.03699C26.3436 6.82781 26.4584 6.63705 26.6509 6.49668L29.4578 7.88864ZM30.6415 4.45817L30.5247 4.55228L30.6416 4.45832C30.6416 4.45827 30.6415 4.45822 30.6415 4.45817ZM26.8749 34.7414C23.0123 34.7433 19.1496 34.7429 15.287 34.7425M26.8749 34.7414L15.287 34.7425M15.287 34.7425C13.7413 34.7424 12.1956 34.7423 10.6498 34.7423M15.287 34.7425L10.6498 34.7423M10.6498 34.7423H10.5465H10.6498Z" fill="white" stroke="white" stroke-width="0.3"/>
<mask id="path-4-outside-1_1_5395" maskUnits="userSpaceOnUse" x="15.4814" y="9.89648" width="23" height="21" fill="black">
<rect fill="white" x="15.4814" y="9.89648" width="23" height="21"/>
<path d="M27.0502 30.3684C26.7393 30.3684 26.4283 30.3633 26.1184 30.3701C25.8138 30.3761 25.6155 30.2477 25.5085 29.9918C25.3636 29.6459 25.2345 29.2939 25.0693 28.9574C25.0185 28.8528 24.8848 28.7593 24.7649 28.7108C24.0083 28.4091 23.2471 28.1167 22.4805 27.8361C22.3504 27.7885 22.1715 27.7767 22.0431 27.8192C21.6871 27.9373 21.342 28.0852 21.0006 28.2365C20.7008 28.3692 20.4517 28.3301 20.2201 28.1116C19.7929 27.7104 19.3611 27.3134 18.9266 26.919C18.6996 26.7133 18.6627 26.488 18.7919 26.2245C18.9773 25.8488 19.2993 25.468 19.2956 25.0923C19.2919 24.7216 18.9358 24.3604 18.7679 23.9829C18.5944 23.5919 18.4431 23.1906 18.3167 22.7853C18.2549 22.5888 18.1534 22.4835 17.9477 22.4198C17.5999 22.3117 17.2622 22.1758 16.9162 22.0601C16.6321 21.9657 16.4844 21.7872 16.4835 21.5118C16.4808 20.9287 16.4808 20.3456 16.4835 19.7625C16.4844 19.488 16.6256 19.3061 16.9107 19.2108C17.2779 19.0885 17.6479 18.9677 18.0003 18.8164C18.1239 18.7637 18.2374 18.6353 18.2937 18.5163C18.6212 17.8193 18.9358 17.1171 19.2412 16.4116C19.2892 16.3003 19.3076 16.1473 19.2643 16.0401C19.1277 15.7036 18.958 15.3779 18.7956 15.0507C18.6655 14.7898 18.6941 14.5628 18.922 14.3554C19.3648 13.9542 19.8031 13.5479 20.2404 13.1407C20.4526 12.9435 20.6879 12.9018 20.9628 13.0174C21.318 13.167 21.6714 13.3243 22.0368 13.4484C22.165 13.4918 22.3448 13.4841 22.474 13.4365C23.2407 13.1568 24.0019 12.8636 24.7575 12.5601C24.8848 12.5091 25.0204 12.4029 25.0776 12.2898C25.2381 11.9744 25.3655 11.6438 25.4937 11.3148C25.6053 11.0283 25.8121 10.8923 26.1442 10.8966C26.7429 10.9034 27.3408 10.9042 27.9395 10.8966C28.2708 10.8923 28.4839 11.0207 28.5993 11.3046C28.757 11.6914 28.8244 12.1648 29.1141 12.4326C29.389 12.6876 29.9075 12.7089 30.3051 12.8644C30.7489 13.0378 31.1706 13.2554 31.6134 13.4314C31.7408 13.4816 31.9215 13.4943 32.0488 13.4518C32.4151 13.3294 32.7694 13.1738 33.1237 13.0217C33.4134 12.8976 33.6532 12.9494 33.8729 13.1551C34.301 13.5555 34.7318 13.9533 35.1673 14.3469C35.3942 14.5518 35.4358 14.7762 35.3075 15.0397C35.1192 15.4256 34.7917 15.8158 34.7955 16.2026C34.7991 16.5732 35.17 16.9319 35.3416 17.3109C35.5142 17.6909 35.6571 18.0837 35.7808 18.4798C35.8417 18.6744 35.9386 18.7841 36.1461 18.8478C36.4949 18.955 36.8317 19.0936 37.1776 19.2075C37.4793 19.3061 37.614 19.4973 37.6122 19.7862C37.6094 20.3592 37.6104 20.9313 37.6112 21.5042C37.6112 21.7814 37.4729 21.9615 37.1878 22.0576C36.8206 22.1809 36.4515 22.3015 36.0982 22.4529C35.9745 22.5055 35.8593 22.6339 35.8029 22.752C35.4745 23.4491 35.1599 24.1512 34.8545 24.8567C34.8066 24.9681 34.789 25.122 34.8333 25.23C34.9698 25.5666 35.1405 25.8913 35.3029 26.2186C35.433 26.4795 35.4016 26.7073 35.1737 26.9139C34.7309 27.316 34.2926 27.7223 33.8553 28.1285C33.644 28.325 33.4078 28.3674 33.1329 28.2518C32.7777 28.1023 32.4243 27.9449 32.059 27.8209C31.9307 27.7775 31.7509 27.786 31.6208 27.8336C30.8541 28.1132 30.0929 28.4065 29.3363 28.71C29.2091 28.761 29.0753 28.8689 29.0181 28.9828C28.8584 29.299 28.7321 29.6298 28.601 29.957C28.4875 30.2409 28.2809 30.3811 27.9469 30.3701C27.648 30.3608 27.3492 30.3684 27.0502 30.3684ZM31.7786 26.6087C31.9076 26.652 32.0165 26.6827 32.1218 26.7243C32.4484 26.8543 32.7704 26.9971 33.1015 27.1162C33.1883 27.1476 33.3331 27.1485 33.4005 27.1017C34.2041 26.5348 34.2179 26.4735 33.8139 25.6379C33.7621 25.5317 33.7151 25.4229 33.6588 25.3192C33.5213 25.0676 33.549 24.8389 33.7178 24.6026C34.2557 23.8521 34.6193 23.0325 34.8176 22.152C34.8775 21.8867 35.0298 21.721 35.3084 21.6326C35.6443 21.5254 35.9801 21.4107 36.3011 21.2705C36.3962 21.2288 36.5088 21.0835 36.4968 20.9993C36.4507 20.6695 36.6794 20.304 36.363 20.0124C36.3187 19.9716 36.2375 19.9631 36.1729 19.941C35.8943 19.8424 35.6184 19.7345 35.3352 19.6477C35.0298 19.5542 34.8748 19.3723 34.8093 19.0816C34.6331 18.2979 34.3424 17.5447 33.8544 16.8834C33.549 16.4686 33.5471 16.1192 33.7797 15.6806C34.2123 14.8654 34.1894 14.8544 33.4753 14.2253C33.4669 14.2177 33.4596 14.2049 33.4503 14.2032C33.3312 14.1845 33.1965 14.1242 33.0969 14.1573C32.7841 14.261 32.4788 14.3877 32.1826 14.528C31.8717 14.675 31.6051 14.6453 31.3145 14.4676C30.6004 14.0298 29.8244 13.6949 28.983 13.5487C28.447 13.4552 28.1785 13.2104 28.006 12.7505C27.6766 11.8733 27.6526 11.8758 26.646 11.9251C26.5436 11.9302 26.4016 12.022 26.3563 12.1079C26.217 12.374 26.098 12.6519 26.0058 12.935C25.8969 13.2691 25.6736 13.4382 25.3046 13.5037C24.4733 13.6516 23.6799 13.9244 22.9842 14.3622C22.5183 14.6555 22.1345 14.6436 21.651 14.4242C20.793 14.0349 20.7847 14.0613 20.1001 14.7014C19.9691 14.8246 19.9258 14.9207 20.0162 15.0847C20.1675 15.3576 20.2828 15.6475 20.4286 15.9229C20.567 16.1855 20.5578 16.4202 20.3788 16.6692C19.84 17.4189 19.4755 18.2384 19.2809 19.1198C19.2227 19.3843 19.0659 19.5491 18.7864 19.6375C18.4496 19.7447 18.1267 19.8866 17.789 19.9878C17.4689 20.0838 17.5704 20.3235 17.599 20.4901C17.6432 20.7537 17.3701 21.1013 17.7936 21.2747C18.0981 21.3988 18.4109 21.5076 18.7255 21.6053C19.0521 21.7065 19.2264 21.8935 19.2966 22.2122C19.4663 22.9858 19.7588 23.7279 20.2404 24.3808C20.5439 24.793 20.5568 25.1424 20.3225 25.5827C19.8796 26.4175 19.8999 26.4319 20.6482 27.055C20.7238 27.1179 20.8964 27.1468 20.9932 27.1144C21.3374 26.998 21.6594 26.8186 22.0081 26.7218C22.2055 26.6674 22.4879 26.6538 22.6494 26.7455C23.5295 27.2462 24.4659 27.5989 25.4697 27.8243C25.6487 27.8642 25.8074 28.0479 25.9338 28.1949C26.0288 28.3062 26.0584 28.4652 26.1156 28.6037C26.4274 29.3509 26.4274 29.3407 27.3066 29.3552C27.5724 29.3594 27.7274 29.311 27.8021 29.0509C27.8805 28.7763 28.0235 28.5179 28.1277 28.2484C28.2246 27.9968 28.3981 27.848 28.6897 27.7928C29.6685 27.6075 30.5736 27.2538 31.4113 26.7524C31.523 26.6852 31.6605 26.6538 31.7794 26.6078L31.7786 26.6087Z"/>
</mask>
<path d="M27.0502 30.3684C26.7393 30.3684 26.4283 30.3633 26.1184 30.3701C25.8138 30.3761 25.6155 30.2477 25.5085 29.9918C25.3636 29.6459 25.2345 29.2939 25.0693 28.9574C25.0185 28.8528 24.8848 28.7593 24.7649 28.7108C24.0083 28.4091 23.2471 28.1167 22.4805 27.8361C22.3504 27.7885 22.1715 27.7767 22.0431 27.8192C21.6871 27.9373 21.342 28.0852 21.0006 28.2365C20.7008 28.3692 20.4517 28.3301 20.2201 28.1116C19.7929 27.7104 19.3611 27.3134 18.9266 26.919C18.6996 26.7133 18.6627 26.488 18.7919 26.2245C18.9773 25.8488 19.2993 25.468 19.2956 25.0923C19.2919 24.7216 18.9358 24.3604 18.7679 23.9829C18.5944 23.5919 18.4431 23.1906 18.3167 22.7853C18.2549 22.5888 18.1534 22.4835 17.9477 22.4198C17.5999 22.3117 17.2622 22.1758 16.9162 22.0601C16.6321 21.9657 16.4844 21.7872 16.4835 21.5118C16.4808 20.9287 16.4808 20.3456 16.4835 19.7625C16.4844 19.488 16.6256 19.3061 16.9107 19.2108C17.2779 19.0885 17.6479 18.9677 18.0003 18.8164C18.1239 18.7637 18.2374 18.6353 18.2937 18.5163C18.6212 17.8193 18.9358 17.1171 19.2412 16.4116C19.2892 16.3003 19.3076 16.1473 19.2643 16.0401C19.1277 15.7036 18.958 15.3779 18.7956 15.0507C18.6655 14.7898 18.6941 14.5628 18.922 14.3554C19.3648 13.9542 19.8031 13.5479 20.2404 13.1407C20.4526 12.9435 20.6879 12.9018 20.9628 13.0174C21.318 13.167 21.6714 13.3243 22.0368 13.4484C22.165 13.4918 22.3448 13.4841 22.474 13.4365C23.2407 13.1568 24.0019 12.8636 24.7575 12.5601C24.8848 12.5091 25.0204 12.4029 25.0776 12.2898C25.2381 11.9744 25.3655 11.6438 25.4937 11.3148C25.6053 11.0283 25.8121 10.8923 26.1442 10.8966C26.7429 10.9034 27.3408 10.9042 27.9395 10.8966C28.2708 10.8923 28.4839 11.0207 28.5993 11.3046C28.757 11.6914 28.8244 12.1648 29.1141 12.4326C29.389 12.6876 29.9075 12.7089 30.3051 12.8644C30.7489 13.0378 31.1706 13.2554 31.6134 13.4314C31.7408 13.4816 31.9215 13.4943 32.0488 13.4518C32.4151 13.3294 32.7694 13.1738 33.1237 13.0217C33.4134 12.8976 33.6532 12.9494 33.8729 13.1551C34.301 13.5555 34.7318 13.9533 35.1673 14.3469C35.3942 14.5518 35.4358 14.7762 35.3075 15.0397C35.1192 15.4256 34.7917 15.8158 34.7955 16.2026C34.7991 16.5732 35.17 16.9319 35.3416 17.3109C35.5142 17.6909 35.6571 18.0837 35.7808 18.4798C35.8417 18.6744 35.9386 18.7841 36.1461 18.8478C36.4949 18.955 36.8317 19.0936 37.1776 19.2075C37.4793 19.3061 37.614 19.4973 37.6122 19.7862C37.6094 20.3592 37.6104 20.9313 37.6112 21.5042C37.6112 21.7814 37.4729 21.9615 37.1878 22.0576C36.8206 22.1809 36.4515 22.3015 36.0982 22.4529C35.9745 22.5055 35.8593 22.6339 35.8029 22.752C35.4745 23.4491 35.1599 24.1512 34.8545 24.8567C34.8066 24.9681 34.789 25.122 34.8333 25.23C34.9698 25.5666 35.1405 25.8913 35.3029 26.2186C35.433 26.4795 35.4016 26.7073 35.1737 26.9139C34.7309 27.316 34.2926 27.7223 33.8553 28.1285C33.644 28.325 33.4078 28.3674 33.1329 28.2518C32.7777 28.1023 32.4243 27.9449 32.059 27.8209C31.9307 27.7775 31.7509 27.786 31.6208 27.8336C30.8541 28.1132 30.0929 28.4065 29.3363 28.71C29.2091 28.761 29.0753 28.8689 29.0181 28.9828C28.8584 29.299 28.7321 29.6298 28.601 29.957C28.4875 30.2409 28.2809 30.3811 27.9469 30.3701C27.648 30.3608 27.3492 30.3684 27.0502 30.3684ZM31.7786 26.6087C31.9076 26.652 32.0165 26.6827 32.1218 26.7243C32.4484 26.8543 32.7704 26.9971 33.1015 27.1162C33.1883 27.1476 33.3331 27.1485 33.4005 27.1017C34.2041 26.5348 34.2179 26.4735 33.8139 25.6379C33.7621 25.5317 33.7151 25.4229 33.6588 25.3192C33.5213 25.0676 33.549 24.8389 33.7178 24.6026C34.2557 23.8521 34.6193 23.0325 34.8176 22.152C34.8775 21.8867 35.0298 21.721 35.3084 21.6326C35.6443 21.5254 35.9801 21.4107 36.3011 21.2705C36.3962 21.2288 36.5088 21.0835 36.4968 20.9993C36.4507 20.6695 36.6794 20.304 36.363 20.0124C36.3187 19.9716 36.2375 19.9631 36.1729 19.941C35.8943 19.8424 35.6184 19.7345 35.3352 19.6477C35.0298 19.5542 34.8748 19.3723 34.8093 19.0816C34.6331 18.2979 34.3424 17.5447 33.8544 16.8834C33.549 16.4686 33.5471 16.1192 33.7797 15.6806C34.2123 14.8654 34.1894 14.8544 33.4753 14.2253C33.4669 14.2177 33.4596 14.2049 33.4503 14.2032C33.3312 14.1845 33.1965 14.1242 33.0969 14.1573C32.7841 14.261 32.4788 14.3877 32.1826 14.528C31.8717 14.675 31.6051 14.6453 31.3145 14.4676C30.6004 14.0298 29.8244 13.6949 28.983 13.5487C28.447 13.4552 28.1785 13.2104 28.006 12.7505C27.6766 11.8733 27.6526 11.8758 26.646 11.9251C26.5436 11.9302 26.4016 12.022 26.3563 12.1079C26.217 12.374 26.098 12.6519 26.0058 12.935C25.8969 13.2691 25.6736 13.4382 25.3046 13.5037C24.4733 13.6516 23.6799 13.9244 22.9842 14.3622C22.5183 14.6555 22.1345 14.6436 21.651 14.4242C20.793 14.0349 20.7847 14.0613 20.1001 14.7014C19.9691 14.8246 19.9258 14.9207 20.0162 15.0847C20.1675 15.3576 20.2828 15.6475 20.4286 15.9229C20.567 16.1855 20.5578 16.4202 20.3788 16.6692C19.84 17.4189 19.4755 18.2384 19.2809 19.1198C19.2227 19.3843 19.0659 19.5491 18.7864 19.6375C18.4496 19.7447 18.1267 19.8866 17.789 19.9878C17.4689 20.0838 17.5704 20.3235 17.599 20.4901C17.6432 20.7537 17.3701 21.1013 17.7936 21.2747C18.0981 21.3988 18.4109 21.5076 18.7255 21.6053C19.0521 21.7065 19.2264 21.8935 19.2966 22.2122C19.4663 22.9858 19.7588 23.7279 20.2404 24.3808C20.5439 24.793 20.5568 25.1424 20.3225 25.5827C19.8796 26.4175 19.8999 26.4319 20.6482 27.055C20.7238 27.1179 20.8964 27.1468 20.9932 27.1144C21.3374 26.998 21.6594 26.8186 22.0081 26.7218C22.2055 26.6674 22.4879 26.6538 22.6494 26.7455C23.5295 27.2462 24.4659 27.5989 25.4697 27.8243C25.6487 27.8642 25.8074 28.0479 25.9338 28.1949C26.0288 28.3062 26.0584 28.4652 26.1156 28.6037C26.4274 29.3509 26.4274 29.3407 27.3066 29.3552C27.5724 29.3594 27.7274 29.311 27.8021 29.0509C27.8805 28.7763 28.0235 28.5179 28.1277 28.2484C28.2246 27.9968 28.3981 27.848 28.6897 27.7928C29.6685 27.6075 30.5736 27.2538 31.4113 26.7524C31.523 26.6852 31.6605 26.6538 31.7794 26.6078L31.7786 26.6087Z" fill="#F4AB1D"/>
<path d="M27.0502 30.3684C26.7393 30.3684 26.4283 30.3633 26.1184 30.3701C25.8138 30.3761 25.6155 30.2477 25.5085 29.9918C25.3636 29.6459 25.2345 29.2939 25.0693 28.9574C25.0185 28.8528 24.8848 28.7593 24.7649 28.7108C24.0083 28.4091 23.2471 28.1167 22.4805 27.8361C22.3504 27.7885 22.1715 27.7767 22.0431 27.8192C21.6871 27.9373 21.342 28.0852 21.0006 28.2365C20.7008 28.3692 20.4517 28.3301 20.2201 28.1116C19.7929 27.7104 19.3611 27.3134 18.9266 26.919C18.6996 26.7133 18.6627 26.488 18.7919 26.2245C18.9773 25.8488 19.2993 25.468 19.2956 25.0923C19.2919 24.7216 18.9358 24.3604 18.7679 23.9829C18.5944 23.5919 18.4431 23.1906 18.3167 22.7853C18.2549 22.5888 18.1534 22.4835 17.9477 22.4198C17.5999 22.3117 17.2622 22.1758 16.9162 22.0601C16.6321 21.9657 16.4844 21.7872 16.4835 21.5118C16.4808 20.9287 16.4808 20.3456 16.4835 19.7625C16.4844 19.488 16.6256 19.3061 16.9107 19.2108C17.2779 19.0885 17.6479 18.9677 18.0003 18.8164C18.1239 18.7637 18.2374 18.6353 18.2937 18.5163C18.6212 17.8193 18.9358 17.1171 19.2412 16.4116C19.2892 16.3003 19.3076 16.1473 19.2643 16.0401C19.1277 15.7036 18.958 15.3779 18.7956 15.0507C18.6655 14.7898 18.6941 14.5628 18.922 14.3554C19.3648 13.9542 19.8031 13.5479 20.2404 13.1407C20.4526 12.9435 20.6879 12.9018 20.9628 13.0174C21.318 13.167 21.6714 13.3243 22.0368 13.4484C22.165 13.4918 22.3448 13.4841 22.474 13.4365C23.2407 13.1568 24.0019 12.8636 24.7575 12.5601C24.8848 12.5091 25.0204 12.4029 25.0776 12.2898C25.2381 11.9744 25.3655 11.6438 25.4937 11.3148C25.6053 11.0283 25.8121 10.8923 26.1442 10.8966C26.7429 10.9034 27.3408 10.9042 27.9395 10.8966C28.2708 10.8923 28.4839 11.0207 28.5993 11.3046C28.757 11.6914 28.8244 12.1648 29.1141 12.4326C29.389 12.6876 29.9075 12.7089 30.3051 12.8644C30.7489 13.0378 31.1706 13.2554 31.6134 13.4314C31.7408 13.4816 31.9215 13.4943 32.0488 13.4518C32.4151 13.3294 32.7694 13.1738 33.1237 13.0217C33.4134 12.8976 33.6532 12.9494 33.8729 13.1551C34.301 13.5555 34.7318 13.9533 35.1673 14.3469C35.3942 14.5518 35.4358 14.7762 35.3075 15.0397C35.1192 15.4256 34.7917 15.8158 34.7955 16.2026C34.7991 16.5732 35.17 16.9319 35.3416 17.3109C35.5142 17.6909 35.6571 18.0837 35.7808 18.4798C35.8417 18.6744 35.9386 18.7841 36.1461 18.8478C36.4949 18.955 36.8317 19.0936 37.1776 19.2075C37.4793 19.3061 37.614 19.4973 37.6122 19.7862C37.6094 20.3592 37.6104 20.9313 37.6112 21.5042C37.6112 21.7814 37.4729 21.9615 37.1878 22.0576C36.8206 22.1809 36.4515 22.3015 36.0982 22.4529C35.9745 22.5055 35.8593 22.6339 35.8029 22.752C35.4745 23.4491 35.1599 24.1512 34.8545 24.8567C34.8066 24.9681 34.789 25.122 34.8333 25.23C34.9698 25.5666 35.1405 25.8913 35.3029 26.2186C35.433 26.4795 35.4016 26.7073 35.1737 26.9139C34.7309 27.316 34.2926 27.7223 33.8553 28.1285C33.644 28.325 33.4078 28.3674 33.1329 28.2518C32.7777 28.1023 32.4243 27.9449 32.059 27.8209C31.9307 27.7775 31.7509 27.786 31.6208 27.8336C30.8541 28.1132 30.0929 28.4065 29.3363 28.71C29.2091 28.761 29.0753 28.8689 29.0181 28.9828C28.8584 29.299 28.7321 29.6298 28.601 29.957C28.4875 30.2409 28.2809 30.3811 27.9469 30.3701C27.648 30.3608 27.3492 30.3684 27.0502 30.3684ZM31.7786 26.6087C31.9076 26.652 32.0165 26.6827 32.1218 26.7243C32.4484 26.8543 32.7704 26.9971 33.1015 27.1162C33.1883 27.1476 33.3331 27.1485 33.4005 27.1017C34.2041 26.5348 34.2179 26.4735 33.8139 25.6379C33.7621 25.5317 33.7151 25.4229 33.6588 25.3192C33.5213 25.0676 33.549 24.8389 33.7178 24.6026C34.2557 23.8521 34.6193 23.0325 34.8176 22.152C34.8775 21.8867 35.0298 21.721 35.3084 21.6326C35.6443 21.5254 35.9801 21.4107 36.3011 21.2705C36.3962 21.2288 36.5088 21.0835 36.4968 20.9993C36.4507 20.6695 36.6794 20.304 36.363 20.0124C36.3187 19.9716 36.2375 19.9631 36.1729 19.941C35.8943 19.8424 35.6184 19.7345 35.3352 19.6477C35.0298 19.5542 34.8748 19.3723 34.8093 19.0816C34.6331 18.2979 34.3424 17.5447 33.8544 16.8834C33.549 16.4686 33.5471 16.1192 33.7797 15.6806C34.2123 14.8654 34.1894 14.8544 33.4753 14.2253C33.4669 14.2177 33.4596 14.2049 33.4503 14.2032C33.3312 14.1845 33.1965 14.1242 33.0969 14.1573C32.7841 14.261 32.4788 14.3877 32.1826 14.528C31.8717 14.675 31.6051 14.6453 31.3145 14.4676C30.6004 14.0298 29.8244 13.6949 28.983 13.5487C28.447 13.4552 28.1785 13.2104 28.006 12.7505C27.6766 11.8733 27.6526 11.8758 26.646 11.9251C26.5436 11.9302 26.4016 12.022 26.3563 12.1079C26.217 12.374 26.098 12.6519 26.0058 12.935C25.8969 13.2691 25.6736 13.4382 25.3046 13.5037C24.4733 13.6516 23.6799 13.9244 22.9842 14.3622C22.5183 14.6555 22.1345 14.6436 21.651 14.4242C20.793 14.0349 20.7847 14.0613 20.1001 14.7014C19.9691 14.8246 19.9258 14.9207 20.0162 15.0847C20.1675 15.3576 20.2828 15.6475 20.4286 15.9229C20.567 16.1855 20.5578 16.4202 20.3788 16.6692C19.84 17.4189 19.4755 18.2384 19.2809 19.1198C19.2227 19.3843 19.0659 19.5491 18.7864 19.6375C18.4496 19.7447 18.1267 19.8866 17.789 19.9878C17.4689 20.0838 17.5704 20.3235 17.599 20.4901C17.6432 20.7537 17.3701 21.1013 17.7936 21.2747C18.0981 21.3988 18.4109 21.5076 18.7255 21.6053C19.0521 21.7065 19.2264 21.8935 19.2966 22.2122C19.4663 22.9858 19.7588 23.7279 20.2404 24.3808C20.5439 24.793 20.5568 25.1424 20.3225 25.5827C19.8796 26.4175 19.8999 26.4319 20.6482 27.055C20.7238 27.1179 20.8964 27.1468 20.9932 27.1144C21.3374 26.998 21.6594 26.8186 22.0081 26.7218C22.2055 26.6674 22.4879 26.6538 22.6494 26.7455C23.5295 27.2462 24.4659 27.5989 25.4697 27.8243C25.6487 27.8642 25.8074 28.0479 25.9338 28.1949C26.0288 28.3062 26.0584 28.4652 26.1156 28.6037C26.4274 29.3509 26.4274 29.3407 27.3066 29.3552C27.5724 29.3594 27.7274 29.311 27.8021 29.0509C27.8805 28.7763 28.0235 28.5179 28.1277 28.2484C28.2246 27.9968 28.3981 27.848 28.6897 27.7928C29.6685 27.6075 30.5736 27.2538 31.4113 26.7524C31.523 26.6852 31.6605 26.6538 31.7794 26.6078L31.7786 26.6087Z" stroke="#F4AB1D" stroke-width="0.6" mask="url(#path-4-outside-1_1_5395)"/>
<path d="M18.1777 31.5351C18.311 31.3884 18.3648 31.2085 18.3297 31.0239C18.2956 30.8446 18.1812 30.6786 18.0138 30.5401L18.0132 30.5396C17.999 30.528 17.9848 30.5169 17.9723 30.5073L17.9708 30.5061C17.9575 30.4958 17.946 30.4869 17.9351 30.4778L17.9351 30.4778C14.138 27.3509 12.4494 23.4606 13.1636 18.8298L13.0159 18.807L13.1636 18.8298C13.8854 14.1498 16.7097 10.8129 21.3771 8.80555C21.8191 8.61581 22.2795 8.47704 22.7492 8.33543C22.9766 8.26687 23.2062 8.19765 23.437 8.12167L23.4371 8.12165C23.623 8.06035 23.7754 7.95905 23.8694 7.81963C23.9657 7.67692 23.9918 7.507 23.9445 7.33363C23.8947 7.15113 23.784 7.00832 23.6257 6.92406C23.4699 6.84115 23.2811 6.82154 23.0817 6.85734C23.0234 6.86752 22.9647 6.88316 22.9141 6.89669C22.8987 6.90078 22.8841 6.90468 22.8704 6.90818L22.8704 6.90818L22.8696 6.90838C16.1843 8.6572 11.6229 14.1962 11.5922 21.3012V21.3018L11.5922 21.3036L11.5922 21.3053C11.625 24.1642 12.8705 27.2984 15.3851 29.9779L15.3851 29.978C15.8172 30.4377 16.3062 30.8549 16.7864 31.2646C16.8974 31.3593 17.0079 31.4535 17.1171 31.5478L17.1172 31.548C17.2884 31.6954 17.4818 31.7724 17.6736 31.7695C17.8665 31.7666 18.0437 31.6829 18.1777 31.5351ZM18.1777 31.5351L18.0667 31.4343M18.1777 31.5351C18.1778 31.5351 18.1778 31.5351 18.1778 31.5351L18.0667 31.4343M18.0667 31.4343C17.8508 31.6723 17.5122 31.6901 17.2151 31.4343M18.0667 31.4343C18.2743 31.2056 18.2171 30.903 17.9181 30.6556C17.9055 30.6453 17.8927 30.6353 17.8798 30.6253C17.8664 30.6149 17.8529 30.6045 17.8397 30.5936C14.0072 27.4375 12.2921 23.4966 13.0154 18.807C13.7461 14.0689 16.6099 10.6925 21.318 8.66771C21.7677 8.47468 22.2419 8.33165 22.7163 8.18857C22.9417 8.12057 23.1672 8.05257 23.3901 7.97919C23.7176 7.87123 23.8726 7.64002 23.7998 7.37311C23.7205 7.08239 23.4575 6.94214 23.1078 7.00504C23.0566 7.01396 23.0071 7.02716 22.9575 7.04038C22.9409 7.0448 22.9243 7.04923 22.9076 7.0535L17.2151 31.4343M17.2151 31.4343C17.1044 31.3387 16.9928 31.2435 16.8812 31.1483C16.4015 30.7389 15.9203 30.3284 15.4944 29.8753L17.2151 31.4343Z" fill="white" stroke="white" stroke-width="0.3"/>
<path d="M22.8501 20.6343V20.6343C22.8527 22.7471 24.728 24.4907 27.0493 24.4899C29.3721 24.4891 31.241 22.7456 31.2401 20.6303C31.2392 18.5151 29.3696 16.7758 27.0446 16.7749L22.8501 20.6343ZM22.8501 20.6343C22.8474 18.5261 24.7271 16.7749 27.0445 16.7749L22.8501 20.6343ZM32.6454 20.6266V20.6266C32.6396 17.7609 30.1245 15.4582 27.0502 15.4574C23.977 15.4565 21.4553 17.7589 21.4457 20.6221C21.4362 23.4931 23.9745 25.8135 27.0624 25.8083C30.1341 25.803 32.6502 23.4892 32.6454 20.6266Z" fill="white" stroke="white" stroke-width="0.3"/>
<path d="M40.8001 3.06199C40.1957 3.06596 39.6839 2.56787 39.674 1.9668C39.664 1.35186 40.1847 0.832979 40.8042 0.839912C41.4096 0.845844 41.9133 1.35186 41.9113 1.95293C41.9104 2.554 41.4047 3.05804 40.8001 3.06199Z" fill="#F4AB1D"/>
<path d="M7.2293 28.808C6.62582 28.8179 6.10812 28.3238 6.09216 27.7236C6.0762 27.1097 6.5919 26.5849 7.21135 26.5859C7.81683 26.5859 8.32454 27.087 8.32953 27.688C8.33451 28.2891 7.83378 28.7981 7.2293 28.808Z" fill="#F4AB1D"/>
<path d="M9.07543 5.82119C8.66347 5.8192 8.32233 5.46965 8.33429 5.06069C8.34627 4.66559 8.68242 4.34178 9.08042 4.34376C9.49239 4.34574 9.83451 4.6953 9.82155 5.10327C9.80958 5.49838 9.47343 5.82218 9.07543 5.82119Z" fill="#F4AB1D"/>
<path d="M5.35966 13.9775C4.9477 13.9855 4.59958 13.6438 4.60157 13.2339C4.60357 12.8388 4.93274 12.5071 5.33074 12.5001C5.7427 12.4922 6.09182 12.8339 6.08883 13.2428C6.08583 13.6378 5.75766 13.9697 5.35966 13.9775Z" fill="white"/>
<path d="M48.7581 11.3838C48.3462 11.3927 47.997 11.0511 47.999 10.6412C48.0011 10.246 48.3292 9.91428 48.7272 9.90642C49.1392 9.89742 49.4883 10.2391 49.4862 10.648C49.4843 11.0431 49.1562 11.3749 48.7581 11.3838Z" fill="white"/>
<path d="M48.7457 26.1857C48.7617 25.7906 49.1028 25.4707 49.4998 25.4766C49.9118 25.4826 50.2499 25.8371 50.2329 26.2441C50.2169 26.6392 49.8749 26.96 49.4778 26.954C49.0659 26.9482 48.7297 26.5946 48.7457 26.1857Z" fill="#F4AB1D"/>
</svg>
