<svg width="56" height="55" viewBox="0 0 56 55" fill="none" xmlns="http://www.w3.org/2000/svg">
<path d="M16.1729 27.4578C16.1729 22.528 16.1729 17.5971 16.1729 12.6673C16.1729 10.3181 17.6689 8.82617 20.0221 8.82617C25.0657 8.82617 30.1093 8.82617 35.1528 8.82617C37.4847 8.82617 38.9827 10.3202 38.9827 12.6469C38.9827 22.5199 38.9827 32.3938 38.9827 42.2666C38.9827 44.5934 37.4837 46.0884 35.1528 46.0894C30.0971 46.0894 25.0402 46.0894 19.9845 46.0894C17.6841 46.0894 16.1729 44.5822 16.1729 42.2869C16.1729 37.3439 16.1729 32.4008 16.1729 27.4578ZM37.437 39.9876V14.9392H17.7136V39.9876H37.437ZM37.4613 13.3772C37.4613 13.0116 37.4685 12.6835 37.4603 12.3565C37.4299 11.2423 36.5575 10.3537 35.4402 10.3516C30.1986 10.3425 24.956 10.3445 19.7143 10.3516C18.8287 10.3527 18.0213 10.9265 17.81 11.7664C17.6811 12.2793 17.7024 12.8288 17.6557 13.3782H37.4624L37.4613 13.3772ZM17.6943 41.5445C17.6943 41.8878 17.6892 42.2027 17.6943 42.5175C17.7146 43.6743 18.5931 44.564 19.7529 44.565C24.9743 44.5721 30.1946 44.5711 35.4159 44.565C36.4397 44.564 37.2775 43.8509 37.4258 42.8415C37.4868 42.4241 37.436 41.9893 37.436 41.5445H17.6943Z" fill="white"/>
<path d="M44.6936 14.908C44.0782 14.9121 43.5572 14.4012 43.547 13.7848C43.5369 13.154 44.067 12.6219 44.6978 12.629C45.3142 12.6351 45.8271 13.154 45.825 13.7705C45.8241 14.387 45.3092 14.904 44.6936 14.908Z" fill="#F4AB1D"/>
<path d="M12.01 39.2436C11.3955 39.2538 10.8684 38.747 10.8522 38.1315C10.8359 37.5018 11.361 36.9636 11.9917 36.9646C12.6082 36.9646 13.1251 37.4785 13.1302 38.095C13.1353 38.7114 12.6255 39.2335 12.01 39.2436Z" fill="#F4AB1D"/>
<path d="M13.8887 15.6677C13.4693 15.6656 13.1219 15.3071 13.1341 14.8877C13.1463 14.4824 13.4886 14.1503 13.8938 14.1524C14.3133 14.1544 14.6616 14.5129 14.6484 14.9313C14.6362 15.3366 14.2939 15.6687 13.8887 15.6677Z" fill="#F4AB1D"/>
<path d="M10.1049 24.033C9.68544 24.0412 9.33098 23.6907 9.33302 23.2703C9.33505 22.8651 9.6702 22.5249 10.0754 22.5177C10.4949 22.5095 10.8504 22.86 10.8473 23.2794C10.8443 23.6846 10.5101 24.0249 10.1049 24.033Z" fill="white"/>
<path d="M42.8002 24.7928C42.3808 24.8019 42.0253 24.4516 42.0274 24.0311C42.0294 23.6258 42.3635 23.2856 42.7687 23.2775C43.1883 23.2683 43.5437 23.6188 43.5416 24.0382C43.5396 24.4434 43.2055 24.7837 42.8002 24.7928Z" fill="white"/>
<path d="M42.7887 39.9754C42.805 39.5701 43.1523 39.242 43.5565 39.2481C43.976 39.2542 44.3202 39.6179 44.3029 40.0353C44.2867 40.4405 43.9384 40.7695 43.5341 40.7634C43.1147 40.7574 42.7725 40.3947 42.7887 39.9754Z" fill="#F4AB1D"/>
<path d="M27.5767 33.1606C25.387 33.1606 23.1964 33.1606 21.0066 33.1606C20.8797 33.1606 20.7517 33.1677 20.6278 33.1494C20.2429 33.0905 19.9677 32.7583 19.9778 32.3795C19.988 32.0159 20.2612 31.7052 20.6309 31.6514C20.7548 31.6331 20.8838 31.6402 21.0097 31.6402C25.3901 31.6402 29.7694 31.6402 34.1498 31.6402C34.2635 31.6402 34.3783 31.6341 34.491 31.6462C34.881 31.6909 35.1695 32.0047 35.1787 32.3826C35.1878 32.7746 34.8933 33.1097 34.488 33.1534C34.35 33.1686 34.2097 33.1606 34.0706 33.1606C31.9064 33.1606 29.741 33.1606 27.5767 33.1606Z" fill="#F4AB1D"/>
<path d="M27.5796 36.2029C25.3899 36.2029 23.1991 36.2029 21.0094 36.2029C20.8957 36.2029 20.7809 36.209 20.6682 36.1969C20.2619 36.1501 19.9684 35.8179 19.9776 35.425C19.9867 35.0461 20.2751 34.7334 20.6651 34.6897C20.7779 34.6764 20.8926 34.6836 21.0064 34.6836C25.3867 34.6836 29.7662 34.6836 34.1465 34.6836C34.2603 34.6836 34.3751 34.6775 34.4878 34.6897C34.8778 34.7334 35.1683 35.0451 35.1785 35.4229C35.1896 35.815 34.8951 36.1501 34.4909 36.1969C34.3781 36.21 34.2634 36.2039 34.1496 36.2039C31.9599 36.2039 29.7692 36.2029 27.5796 36.2029Z" fill="#F4AB1D"/>
<path d="M25.3025 25.5558C26.7701 25.5558 28.2387 25.5436 29.7053 25.568C29.9471 25.572 30.2243 25.6818 30.4162 25.832C30.6478 26.0129 30.6783 26.3113 30.5574 26.5979C30.4314 26.8944 30.203 27.0599 29.885 27.0721C29.5062 27.0863 29.1264 27.0782 28.7465 27.0782C26.1902 27.0782 23.6349 27.0782 21.0786 27.0782C20.9648 27.0782 20.8501 27.0833 20.7373 27.0761C20.2996 27.0487 19.9858 26.74 19.9787 26.3318C19.9705 25.9093 20.2925 25.5689 20.7485 25.5629C21.6849 25.5507 22.6213 25.5588 23.5577 25.5579C24.1397 25.5579 24.7216 25.5579 25.3036 25.5579L25.3025 25.5558Z" fill="#F4AB1D"/>
<path d="M25.2935 28.5971C26.7356 28.5971 28.1789 28.5971 29.6211 28.5971C29.7348 28.5971 29.8505 28.591 29.9623 28.6073C30.3462 28.6642 30.6255 28.9943 30.6174 29.372C30.6092 29.7357 30.3391 30.0484 29.9694 30.1054C29.8455 30.1246 29.7165 30.1176 29.5905 30.1176C26.7305 30.1176 23.8716 30.1176 21.0116 30.1176C20.9354 30.1176 20.8592 30.1195 20.7841 30.1176C20.3017 30.0993 19.9696 29.7783 19.9787 29.3427C19.9868 28.9211 20.3118 28.6083 20.777 28.6011C21.3965 28.591 22.017 28.5982 22.6366 28.5982C23.5223 28.5982 24.4078 28.5971 25.2935 28.5971Z" fill="#F4AB1D"/>
<path d="M26.8141 17.2812C26.7877 17.3533 26.748 17.5005 26.682 17.6346C25.9619 19.0849 25.2409 20.5352 24.5137 21.9825C24.2668 22.473 23.8373 22.6396 23.426 22.4213C23.0318 22.213 22.9191 21.7804 23.1538 21.3081C23.88 19.8466 24.6091 18.3862 25.3435 16.9277C25.5425 16.5316 25.8838 16.361 26.2352 16.4514C26.5805 16.5398 26.8232 16.8546 26.8141 17.2812Z" fill="white"/>
<path d="M20.9742 19.4453C21.3713 19.8221 21.6831 20.0984 21.9736 20.3969C22.3382 20.7727 22.3463 21.2227 22.0173 21.5375C21.6983 21.8421 21.2667 21.8259 20.9031 21.4725C20.4227 21.0053 19.9474 20.533 19.4833 20.0506C19.1126 19.6657 19.1166 19.2696 19.4934 18.8806C19.9596 18.3992 20.4329 17.9259 20.9143 17.4598C21.2738 17.1114 21.7136 17.1033 22.0275 17.4151C22.3413 17.7269 22.3301 18.1595 21.9908 18.5292C21.8456 18.6876 21.6943 18.841 21.5358 18.9852C21.3774 19.1284 21.2058 19.2564 20.9752 19.4443L20.9742 19.4453Z" fill="white"/>
<path d="M28.8598 19.4958C28.4658 19.1221 28.154 18.8448 27.8635 18.5472C27.4979 18.1735 27.4878 17.7236 27.8158 17.4067C28.1327 17.101 28.5673 17.1152 28.9299 17.4666C29.4113 17.9328 29.8856 18.4061 30.3497 18.8895C30.7215 19.2765 30.7184 19.6695 30.3427 20.0595C29.8785 20.5419 29.4043 21.0162 28.9218 21.4814C28.5603 21.8298 28.1215 21.8389 27.8077 21.5271C27.4929 21.2153 27.504 20.7796 27.8422 20.4129C27.9884 20.2555 28.1387 20.1011 28.2982 19.9569C28.4567 19.8137 28.6272 19.6837 28.8588 19.4938L28.8598 19.4958Z" fill="white"/>
</svg>
