<svg width="225" height="532" viewBox="0 0 225 532" fill="none" xmlns="http://www.w3.org/2000/svg">
<path d="M147.843 424.792C66.6058 366.164 52.0349 247.465 115.41 159.649C178.786 71.8327 296.031 48.2627 377.268 106.89C458.505 165.518 473.075 284.217 409.7 372.033C346.324 459.849 229.08 483.419 147.843 424.792Z" stroke="#F4AB1D"/>
<path d="M172.772 382.023C115.6 340.762 105.332 257.211 149.951 195.385C194.57 133.559 277.101 116.979 334.273 158.24C391.446 199.5 401.714 283.052 357.095 344.878C312.476 406.703 229.945 423.283 172.772 382.023Z" stroke="#F4AB1D"/>
<path d="M160.281 399.333C93.3132 351.003 81.2937 253.144 133.548 180.739C185.802 108.333 282.463 88.908 349.432 137.238C416.4 185.568 428.419 283.427 376.165 355.832C323.911 428.238 227.25 447.663 160.281 399.333Z" stroke="white"/>
<path d="M181.538 364.08C134.421 330.076 125.951 261.211 162.733 210.244C199.514 159.278 267.541 145.619 314.658 179.623C361.775 213.627 370.245 282.492 333.464 333.459C296.682 384.425 228.655 398.084 181.538 364.08Z" stroke="white"/>
</svg>
