<svg width="263" height="485" viewBox="0 0 263 485" fill="none" xmlns="http://www.w3.org/2000/svg">
<path d="M68.8396 316.133C31.1935 223.292 81.9465 115.006 182.306 74.3107C282.665 33.6158 394.503 75.9731 432.149 168.814C469.796 261.655 419.043 369.941 318.683 410.636C218.324 451.331 106.486 408.974 68.8396 316.133Z" stroke="#FFCC41"/>
<path d="M112.689 293.158C86.195 227.819 121.91 151.591 192.567 122.94C263.224 94.2891 341.943 124.115 368.437 189.454C394.932 254.793 359.217 331.021 288.56 359.672C217.903 388.323 139.184 358.497 112.689 293.158Z" stroke="#FFCC41"/>
<path d="M92.9081 301.181C61.8743 224.647 103.711 135.369 186.458 101.815C269.206 68.262 361.407 103.189 392.44 179.723C423.474 256.257 381.638 345.535 298.89 379.088C216.142 412.642 123.942 377.715 92.9081 301.181Z" stroke="white"/>
<path d="M129.652 282.619C107.817 228.772 137.249 165.939 195.495 142.321C253.741 118.702 318.622 143.293 340.456 197.14C362.291 250.987 332.86 313.82 274.614 337.439C216.367 361.057 151.487 336.467 129.652 282.619Z" stroke="white"/>
</svg>
