<svg width="52" height="43" viewBox="0 0 52 43" fill="none" xmlns="http://www.w3.org/2000/svg">
<path d="M29.1176 2.22215C28.5178 2.22612 28.01 1.72803 28.0001 1.12695C27.9903 0.512012 28.5069 -0.00686454 29.1217 6.86888e-05C29.7225 0.00600059 30.2223 0.512012 30.2203 1.11309C30.2194 1.71416 29.7176 2.21819 29.1176 2.22215Z" fill="#F4AB1D"/>
<path d="M1.12879 20.2221C0.529929 20.2319 0.0161956 19.7379 0.000358015 19.1377C-0.0154796 18.5237 0.496278 17.999 1.11098 18C1.71182 18 2.21565 18.501 2.2206 19.1021C2.22554 19.7031 1.72865 20.2122 1.12879 20.2221Z" fill="#F4AB1D"/>
<path d="M13.7358 1.47744C13.327 1.47545 12.9884 1.1259 13.0003 0.716945C13.0122 0.32184 13.3458 -0.00196829 13.7407 9.00779e-06C14.1495 0.00198631 14.489 0.35155 14.4762 0.759521C14.4643 1.15463 14.1307 1.47843 13.7358 1.47744Z" fill="#F4AB1D"/>
<path d="M3.75229 6.47754C3.34349 6.48552 2.99803 6.1438 3.00001 5.73389C3.00199 5.33881 3.32864 5.00711 3.72359 5.00014C4.13239 4.99215 4.47885 5.33387 4.47588 5.74277C4.4729 6.13785 4.14724 6.46968 3.75229 6.47754Z" fill="white"/>
<path d="M44.7532 5.47757C44.3445 5.48644 43.998 5.14485 44 4.73494C44.002 4.33974 44.3277 4.00803 44.7226 4.00017C45.1314 3.99117 45.4778 4.33289 45.4758 4.74179C45.4739 5.13687 45.1483 5.4687 44.7532 5.47757Z" fill="white"/>
<path d="M50.0016 14.7091C50.0174 14.314 50.3559 13.9941 50.7498 14.0001C51.1587 14.006 51.4942 14.3606 51.4774 14.7676C51.4615 15.1626 51.1221 15.4834 50.7281 15.4775C50.3193 15.4716 49.9857 15.118 50.0016 14.7091Z" fill="#F4AB1D"/>
<g clip-path="url(#clip0_1_10206)">
<path d="M36.2229 38.0273H30.8045C31.0487 38.47 31.2698 38.8759 31.496 39.279C31.789 39.8008 32.0666 40.3305 32.393 40.8312C32.4907 40.9814 32.7143 41.1 32.8917 41.1237C33.2567 41.1711 33.632 41.1237 34.0021 41.1501C34.5162 41.1817 34.8709 41.5796 34.8632 42.0803C34.858 42.5678 34.5188 42.9368 34.0252 42.9868C33.871 43.0026 33.7168 43 33.5626 43C28.4475 43 23.335 43 18.2199 43C18.0502 43 17.878 43.0026 17.7109 42.9842C17.2226 42.9289 16.8987 42.5494 16.9064 42.054C16.9141 41.5612 17.2457 41.187 17.7418 41.1527C18.1428 41.1263 18.5463 41.158 18.9447 41.129C19.0758 41.1211 19.2558 41.042 19.3174 40.9366C19.8649 40.0037 20.3919 39.0577 20.9831 38.0141C20.7492 38.0141 20.5898 38.0141 20.433 38.0141C17.2817 38.0141 14.1278 38.0141 10.9765 38.0141C9.10013 38.0141 8.00257 36.8994 8 34.9862C8 26.6642 8 18.3447 8 10.0279C8 8.09626 9.07185 7 10.9637 7C20.9162 7 30.8662 7 40.8162 7C42.6926 7 43.7645 8.10944 43.7696 10.0463C43.7747 12.0755 43.7696 14.102 43.7696 16.1311C43.7696 16.3156 43.7696 16.5 43.7696 16.7346C43.9907 16.7346 44.1552 16.7346 44.3222 16.7346C45.9596 16.7346 47.5969 16.7319 49.2368 16.7346C50.9307 16.7398 51.9949 17.8177 51.9974 19.5464C52.0026 26.4217 52.0026 33.2997 51.9974 40.175C51.9974 41.9196 50.9538 42.9895 49.2548 42.9921C45.8259 43 42.3944 43 38.9655 42.9921C37.2819 42.9868 36.2332 41.8906 36.2255 40.1566C36.2229 39.4609 36.2255 38.7678 36.2255 38.0247L36.2229 38.0273ZM36.2229 30.6987C36.2229 30.4615 36.2229 30.2718 36.2229 30.0847C36.2229 26.5983 36.2229 23.1145 36.2229 19.6281C36.2229 17.8203 37.2845 16.7398 39.0555 16.7346C39.8446 16.7346 40.6311 16.7346 41.4203 16.7346C41.5848 16.7346 41.7467 16.7346 41.9498 16.7346V16.2049C41.9498 14.1626 41.9498 12.1176 41.9498 10.0753C41.9498 9.13981 41.6747 8.86048 40.7545 8.86048C30.8354 8.86048 20.9188 8.86048 10.9996 8.86048C10.082 8.86048 9.81213 9.13718 9.81213 10.0832C9.81213 16.7846 9.81213 23.4861 9.81213 30.1848C9.81213 30.3509 9.81213 30.5169 9.81213 30.6934H36.2229V30.6987ZM38.0942 24.5322V35.5186H50.1519V24.5322H38.0942ZM36.2075 32.6251H9.81213C9.81213 33.4077 9.81213 34.164 9.81213 34.9204C9.81213 35.8559 10.0846 36.1299 11.0074 36.1299C19.2378 36.1299 27.4707 36.1299 35.7011 36.1299H36.2075V32.6251ZM38.0659 22.6033H50.1904C50.1904 21.5992 50.1904 20.6242 50.1904 19.6465C50.1879 18.8638 49.954 18.624 49.1957 18.624C46.9286 18.624 44.659 18.624 42.3919 18.624C41.2198 18.624 40.0477 18.6188 38.873 18.6267C38.3795 18.6293 38.0787 18.8849 38.071 19.3461C38.053 20.4186 38.0659 21.4938 38.0659 22.6033ZM38.0633 37.4528C38.0633 38.3567 38.0633 39.2237 38.0633 40.0907C38.0633 40.8997 38.2921 41.1343 39.0863 41.1343C41.5719 41.1343 44.0575 41.1343 46.5431 41.1343C47.4684 41.1343 48.3963 41.1343 49.3216 41.1343C49.7586 41.1343 50.1339 40.9551 50.1545 40.4886C50.2007 39.4846 50.1673 38.4753 50.1673 37.4502H38.0633V37.4528ZM30.4241 41.1105C29.8483 40.0933 29.3214 39.1473 28.7765 38.2144C28.7148 38.109 28.5349 38.0194 28.4115 38.0194C26.7305 38.0062 25.0469 38.0089 23.3658 38.0168C23.2579 38.0168 23.0934 38.0537 23.0471 38.1327C22.479 39.1025 21.929 40.0802 21.3429 41.1132H30.4241V41.1105Z" fill="white"/>
<path d="M19.3163 14.5414C19.3163 15.2213 19.324 15.9012 19.3163 16.5811C19.3009 17.5772 18.6532 18.2387 17.6764 18.244C16.3347 18.2519 14.9929 18.2519 13.6486 18.244C12.6719 18.2387 12.0164 17.5772 12.0087 16.5838C11.9984 15.1924 11.9958 13.7983 12.0087 12.4069C12.0164 11.4556 12.6487 10.7836 13.5766 10.7678C14.9647 10.7441 16.3527 10.7441 17.7407 10.7678C18.6686 10.7836 19.2958 11.4556 19.3112 12.4043C19.324 13.1158 19.3112 13.8273 19.3138 14.5388L19.3163 14.5414ZM13.862 16.3334H17.4502V12.6678H13.862V16.3334Z" fill="#F4AB1D"/>
<path d="M15.6335 27.4948C14.9549 27.4948 14.2763 27.5027 13.5977 27.4948C12.6801 27.4817 12.0221 26.8255 12.0118 25.8768C11.9964 24.4696 11.9964 23.0597 12.0118 21.6525C12.0221 20.7223 12.6313 20.0503 13.5412 20.0266C14.96 19.9923 16.3815 19.9897 17.7978 20.0266C18.7077 20.0503 19.3066 20.7302 19.3143 21.6657C19.3271 23.0571 19.3271 24.4511 19.3143 25.8425C19.3066 26.8387 18.6511 27.4843 17.6692 27.4922C16.9907 27.4975 16.3121 27.4922 15.6335 27.4922V27.4948ZM17.4456 25.5975V21.9239H13.8831V25.5975H17.4456Z" fill="#F4AB1D"/>
<path d="M27.6946 21.2902C29.3166 21.2902 30.9385 21.2876 32.563 21.2902C33.1876 21.2902 33.5886 21.646 33.6143 22.1862C33.6374 22.7449 33.2287 23.1586 32.5964 23.1692C31.6839 23.1823 30.774 23.1744 29.8615 23.1744C27.5584 23.1744 25.2579 23.1744 22.9548 23.1718C22.7415 23.1718 22.5179 23.156 22.3174 23.0875C21.9087 22.9478 21.6799 22.4945 21.757 22.0571C21.8367 21.6117 22.1914 21.3034 22.6901 21.2981C23.618 21.285 24.5433 21.2929 25.4712 21.2929C26.2141 21.2929 26.9544 21.2929 27.6972 21.2929L27.6946 21.2902Z" fill="white"/>
<path d="M27.6348 12.874C25.9975 12.874 24.3602 12.8767 22.7228 12.874C22.2319 12.874 21.8746 12.6131 21.7743 12.1941C21.6715 11.7672 21.7923 11.3957 22.1676 11.169C22.3321 11.0689 22.5455 11.0083 22.7357 11.0083C26.0258 10.9977 29.3185 10.9977 32.6086 11.0056C33.2152 11.0056 33.6187 11.4088 33.6136 11.9517C33.6084 12.5025 33.21 12.8767 32.5957 12.8767C30.9429 12.8819 29.2902 12.8767 27.6348 12.8767V12.874Z" fill="#F4AB1D"/>
<path d="M27.6942 28.4238C26.0723 28.4238 24.4503 28.4238 22.8284 28.4238C22.1344 28.4238 21.736 28.068 21.7463 27.4751C21.754 26.9138 22.155 26.5554 22.8156 26.5528C26.0594 26.5475 29.3032 26.5475 32.5497 26.5528C33.2025 26.5528 33.6112 26.927 33.6138 27.4857C33.6164 28.0654 33.2051 28.4212 32.5162 28.4238C30.9097 28.4238 29.3032 28.4238 27.6967 28.4238H27.6942Z" fill="white"/>
<path d="M27.671 17.8907C26.0028 17.8907 24.3346 17.896 22.6664 17.8881C22.1703 17.8855 21.8182 17.5666 21.7514 17.116C21.6871 16.6917 21.9056 16.2648 22.2963 16.1198C22.4659 16.0566 22.6587 16.0461 22.8412 16.0434C23.6894 16.0355 24.5402 16.0408 25.391 16.0408C27.6607 16.0408 29.9329 16.0408 32.2026 16.0408C32.326 16.0408 32.4493 16.0408 32.5727 16.0408C33.2205 16.0566 33.6266 16.4229 33.6137 16.9868C33.6034 17.5376 33.2127 17.8881 32.583 17.8934C31.5317 17.8986 30.483 17.8934 29.4317 17.8934C28.8456 17.8934 28.257 17.8934 27.671 17.8934V17.8907Z" fill="white"/>
<path d="M25.8902 33.4317C26.4145 33.4343 26.8387 33.8717 26.8335 34.3988C26.8284 34.9232 26.3888 35.3633 25.8773 35.3606C25.3633 35.358 24.9314 34.91 24.9366 34.3856C24.9391 33.8533 25.3684 33.429 25.8928 33.4317H25.8902Z" fill="white"/>
<path d="M44.1269 19.7624C44.2503 19.7624 44.3736 19.7572 44.497 19.7624C45.0085 19.794 45.3761 20.1735 45.3838 20.6689C45.3915 21.1644 45.0368 21.557 44.5227 21.6018C44.2785 21.6229 44.0292 21.6229 43.7825 21.6097C43.199 21.5755 42.8417 21.1986 42.8571 20.6479C42.8725 20.1261 43.2401 19.7756 43.8004 19.7572C43.9084 19.7545 44.0164 19.7572 44.1243 19.7572L44.1269 19.7624Z" fill="#F4AB1D"/>
<path d="M45.0548 39.3159C45.0548 39.8324 44.6204 40.2909 44.1217 40.2936C43.6308 40.2962 43.1758 39.835 43.1707 39.3291C43.1656 38.8178 43.6051 38.3619 44.1089 38.3593C44.6153 38.354 45.0522 38.7967 45.0548 39.3159Z" fill="#F4AB1D"/>
</g>
<defs>
<clipPath id="clip0_1_10206">
<rect width="44" height="36" fill="white" transform="translate(8 7)"/>
</clipPath>
</defs>
</svg>
