<svg width="211" height="525" viewBox="0 0 211 525" fill="none" xmlns="http://www.w3.org/2000/svg">
<path d="M-214.835 376.222C-273.062 294.698 -248.916 177.571 -160.79 114.627C-72.6637 51.6843 45.9626 66.8383 104.19 148.362C162.418 229.887 138.272 347.014 50.1455 409.957C-37.9809 472.9 -156.607 457.746 -214.835 376.222Z" stroke="#F4AB1D"/>
<path d="M-177.539 343.669C-218.518 286.294 -201.533 203.846 -139.489 159.531C-77.4444 115.217 6.05564 125.895 47.0347 183.27C88.0137 240.644 71.0286 323.093 8.98412 367.407C-53.0604 411.722 -136.56 401.043 -177.539 343.669Z" stroke="#F4AB1D"/>
<path d="M-194.909 356.077C-242.909 288.872 -223.009 192.307 -150.348 140.41C-77.6861 88.512 20.1125 101.012 68.1127 168.217C116.113 235.422 96.213 331.987 23.5516 383.885C-49.1099 435.782 -146.908 423.282 -194.909 356.077Z" stroke="white"/>
<path d="M-163.497 329.471C-197.269 282.187 -183.276 214.228 -132.129 177.698C-80.983 141.167 -12.1601 149.975 21.6118 197.259C55.3837 244.543 41.3907 312.502 -9.75579 349.032C-60.9022 385.563 -129.725 376.755 -163.497 329.471Z" stroke="white"/>
</svg>
