<svg width="46" height="38" viewBox="0 0 46 38" fill="none" xmlns="http://www.w3.org/2000/svg">
<path d="M33.9762 4.21983C33.3764 4.2238 32.8685 3.72571 32.8587 3.12463C32.8488 2.50969 33.3655 1.99082 33.9802 1.99775C34.581 2.00368 35.0809 2.50969 35.0788 3.11077C35.078 3.71184 34.5761 4.21587 33.9762 4.21983Z" fill="#F4AB1D"/>
<path d="M1.98731 25.2197C1.38845 25.2296 0.874716 24.7356 0.858879 24.1354C0.843041 23.5214 1.3548 22.9967 1.9695 22.9977C2.57034 22.9977 3.07417 23.4987 3.07912 24.0998C3.08406 24.7008 2.58717 25.2098 1.98731 25.2197Z" fill="#F4AB1D"/>
<path d="M16.5943 2.47513C16.1855 2.47314 15.847 2.12358 15.8588 1.71463C15.8707 1.31952 16.2043 0.995712 16.5992 0.99769C17.0081 0.999667 17.3476 1.34923 17.3347 1.7572C17.3228 2.15231 16.9892 2.47611 16.5943 2.47513Z" fill="#F4AB1D"/>
<path d="M5.61081 10.4752C5.20201 10.4832 4.85655 10.1415 4.85853 9.73157C4.86051 9.33649 5.18716 9.00479 5.58211 8.99782C5.99091 8.98983 6.33737 9.33155 6.3344 9.74045C6.33142 10.1355 6.00576 10.4674 5.61081 10.4752Z" fill="white"/>
<path d="M41.6118 12.4753C41.203 12.4841 40.8565 12.1425 40.8585 11.7326C40.8606 11.3374 41.1862 11.0057 41.5811 10.9979C41.99 10.9889 42.3364 11.3306 42.3343 11.7395C42.3324 12.1345 42.0068 12.4664 41.6118 12.4753Z" fill="white"/>
<path d="M43.6651 25.3435C43.681 24.9484 44.0195 24.6285 44.4134 24.6345C44.8223 24.6404 45.1578 24.995 45.1409 25.402C45.1251 25.797 44.7857 26.1178 44.3916 26.1119C43.9829 26.106 43.6493 25.7524 43.6651 25.3435Z" fill="#F4AB1D"/>
<path d="M37.1545 26.658C36.7388 26.3804 36.3067 26.1221 35.8964 25.8335C32.9915 23.7886 32.7931 19.9407 34.0051 17.6732C34.5975 16.5656 35.4752 15.7356 36.4562 14.9907C37.0812 14.5152 37.1627 13.9435 36.7143 13.2977C35.1708 11.0796 33.0024 9.92802 30.3909 9.6147C29.5268 9.51026 28.6409 9.58721 27.7632 9.59546C27.7116 9.59546 27.6572 9.59546 27.6056 9.59546C27.6056 9.59546 27.6002 9.60096 27.5975 9.6037C27.5975 9.6037 27.5975 9.6037 27.5975 9.60645C27.5975 9.61745 27.5975 9.61195 27.5975 9.60645C27.5975 9.6037 27.5975 9.60096 27.5975 9.59546C27.5975 9.59546 27.6029 9.59546 27.6056 9.59546C27.6274 9.57072 27.6491 9.54599 27.6708 9.524C27.7089 9.49102 27.7415 9.45529 27.7795 9.41956C25.3339 11.2336 22.5295 10.868 21.8665 10.7471C21.8665 10.7553 21.8665 10.7636 21.8692 10.7718C21.8393 10.7608 20.8149 10.3925 20.3339 10.2194C18.9969 9.73013 17.6491 9.43605 16.2116 9.73838C12.6409 10.486 10.0621 12.4539 8.71974 15.9307C7.90724 18.047 7.70344 20.2623 7.96703 22.5023C8.41268 26.2705 9.68442 29.7638 11.6056 33.0125C12.4697 34.4774 13.4915 35.8214 14.8556 36.8631C16.1002 37.8113 17.486 38.2373 19.0159 37.8526C20.1301 37.5722 21.2252 37.1957 22.3121 36.8136C23.1681 36.514 24.0187 36.4728 24.8665 36.7477C25.4969 36.9538 26.111 37.2177 26.7252 37.4788C28.7768 38.3555 30.6899 38.1356 32.4045 36.6899C33.0485 36.1458 33.6464 35.5246 34.1735 34.865C35.7252 32.9163 36.8094 30.6983 37.7116 28.3813C38.0159 27.598 37.8529 27.1225 37.1572 26.658H37.1545ZM35.2197 28.8046C34.41 30.6186 33.4969 32.3748 32.1953 33.8865C31.8067 34.3373 31.361 34.7468 30.9018 35.1206C29.9589 35.8901 28.9018 36.0138 27.7795 35.5631C27.3502 35.3899 26.9235 35.203 26.4996 35.0161C24.7958 34.2713 23.0839 34.1751 21.3312 34.8595C20.4915 35.1865 19.6246 35.4504 18.7578 35.7032C17.8094 35.9781 16.9507 35.739 16.1735 35.1453C15.1409 34.3565 14.3447 33.3533 13.6681 32.2567C11.7985 29.2278 10.5621 25.9544 10.1138 22.4061C9.86105 20.4107 10.0322 18.4346 10.7822 16.5519C11.8094 13.9738 13.7605 12.5281 16.3909 11.9097C17.4072 11.6706 18.3719 11.8135 19.3312 12.157C20.2062 12.4676 21.0812 12.7754 21.9589 13.0723C22.8556 13.3719 23.7306 13.2812 24.611 12.9568C25.7252 12.5473 26.8339 12.0581 27.9888 11.8327C30.2333 11.393 32.2822 11.9591 34.0404 13.4791C34.1301 13.556 34.2143 13.644 34.2985 13.7292C34.3312 13.7622 34.3556 13.8034 34.41 13.8721C33.535 14.6252 32.804 15.458 32.2415 16.4364C30.4072 19.6192 30.679 24.9622 34.929 27.8014C35.4969 28.1807 35.4996 28.1917 35.2225 28.8101L35.2197 28.8046Z" fill="white"/>
<path d="M27.7793 9.42097C29.7983 7.53551 30.6896 5.16083 30.7521 2.40411C30.7657 1.73623 30.5592 1.26349 29.9423 0.999634H29.0836C29.0537 1.01612 29.0238 1.04361 28.9912 1.04911C26.9396 1.36793 25.3092 2.45083 23.9749 3.99547C22.3119 5.91666 21.4124 8.10995 21.8662 10.7512C22.5293 10.8722 25.3336 11.2377 27.7793 9.42372V9.42097ZM28.4939 3.41005C28.3472 6.12829 26.1977 8.70087 23.9641 9.0087C23.8581 7.20295 26.0483 4.10541 28.4939 3.41005Z" fill="#F4AB1D"/>
</svg>
