<svg width="228" height="525" viewBox="0 0 228 525" fill="none" xmlns="http://www.w3.org/2000/svg">
<path d="M106.165 376.222C47.9376 294.698 72.0836 177.571 160.21 114.627C248.336 51.6843 366.963 66.8383 425.19 148.362C483.418 229.887 459.272 347.014 371.145 409.957C283.019 472.9 164.393 457.746 106.165 376.222Z" stroke="#F4AB1D"/>
<path d="M143.461 343.669C102.482 286.294 119.467 203.846 181.511 159.531C243.556 115.217 327.056 125.895 368.035 183.27C409.014 240.644 392.029 323.093 329.984 367.407C267.94 411.722 184.44 401.043 143.461 343.669Z" stroke="#F4AB1D"/>
<path d="M126.091 356.077C78.091 288.872 97.991 192.307 170.652 140.41C243.314 88.512 341.112 101.012 389.113 168.217C437.113 235.422 417.213 331.987 344.552 383.885C271.89 435.782 174.092 423.282 126.091 356.077Z" stroke="white"/>
<path d="M157.503 329.471C123.731 282.187 137.724 214.228 188.871 177.698C240.017 141.167 308.84 149.975 342.612 197.259C376.384 244.543 362.391 312.502 311.244 349.032C260.098 385.563 191.275 376.755 157.503 329.471Z" stroke="white"/>
</svg>
