<svg width="56" height="41" viewBox="0 0 56 41" fill="none" xmlns="http://www.w3.org/2000/svg">
<path d="M36.3787 2.22215C35.7789 2.22612 35.271 1.72803 35.2612 1.12695C35.2513 0.512012 35.768 -0.00686454 36.3827 6.86888e-05C36.9835 0.00600059 37.4834 0.512012 37.4813 1.11309C37.4804 1.71416 36.9786 2.21819 36.3787 2.22215Z" fill="#F4AB1D"/>
<path d="M1.38981 21.2221C0.790942 21.2319 0.277209 20.7379 0.261371 20.1377C0.245533 19.5237 0.757291 18.999 1.37199 19C1.97283 19 2.47666 19.501 2.48161 20.1021C2.48655 20.7031 1.98966 21.2122 1.38981 21.2221Z" fill="#F4AB1D"/>
<path d="M19.9968 1.47744C19.588 1.47545 19.2494 1.1259 19.2613 0.716945C19.2732 0.32184 19.6068 -0.00196829 20.0017 9.00779e-06C20.4105 0.00198631 20.7501 0.35155 20.7372 0.759521C20.7253 1.15463 20.3917 1.47843 19.9968 1.47744Z" fill="#F4AB1D"/>
<path d="M5.0133 4.47754C4.6045 4.48552 4.25904 4.1438 4.26102 3.73389C4.263 3.33881 4.58965 3.00711 4.98461 3.00014C5.39341 2.99215 5.73986 3.33387 5.73689 3.74277C5.73392 4.13785 5.40826 4.46968 5.0133 4.47754Z" fill="white"/>
<path d="M54.0143 5.47757C53.6055 5.48644 53.259 5.14485 53.261 4.73494C53.2631 4.33974 53.5887 4.00803 53.9836 4.00017C54.3925 3.99117 54.7389 4.33289 54.7368 4.74179C54.7349 5.13687 54.4093 5.4687 54.0143 5.47757Z" fill="white"/>
<path d="M54.2626 19.7091C54.2784 19.314 54.617 18.9941 55.0109 19.0001C55.4197 19.006 55.7552 19.3606 55.7384 19.7676C55.7225 20.1626 55.3831 20.4834 54.9891 20.4775C54.5803 20.4716 54.2467 20.118 54.2626 19.7091Z" fill="#F4AB1D"/>
<g clip-path="url(#clip0_1_10228)">
<path d="M8.26101 36.9088C8.26101 27.3016 8.26101 17.6944 8.26101 8.08714C8.2814 8.0505 8.30587 8.01793 8.31403 7.97723C8.91758 5.35152 10.6059 4 13.2974 4C16.5925 4 19.8876 4 23.1827 4C30.5925 4 38.0023 4 45.4081 4C48.1975 4 50.2529 6.00286 50.2569 8.73033C50.2651 17.9142 50.2651 27.098 50.2488 36.2819C50.2488 36.8192 50.155 37.3769 49.9837 37.8817C49.3231 39.8235 47.5695 40.9959 45.4 40.9959C34.642 40.9959 23.8841 40.9959 13.1261 40.9959C12.9753 40.9959 12.8244 40.9959 12.6735 40.9878C10.716 40.886 8.99506 39.5264 8.4486 37.6538C8.3752 37.4054 8.32218 37.153 8.26101 36.9047L8.26101 36.9088ZM48.8704 15.1216H9.66387C9.65979 15.2315 9.65163 15.3088 9.65163 15.3903C9.65163 22.3473 9.64348 29.3085 9.65163 36.2656C9.65163 38.2155 11.0667 39.6078 13.0364 39.6078C23.8474 39.6159 34.6583 39.6159 45.4693 39.5956C45.9872 39.5956 46.5459 39.4775 47.0067 39.2577C48.3076 38.6389 48.8663 37.5316 48.8663 36.1068C48.8622 29.2597 48.8663 22.4084 48.8663 15.5612C48.8663 15.4269 48.8663 15.2926 48.8663 15.1216H48.8704ZM9.67202 13.6805H48.85C48.85 11.8893 48.8663 10.1307 48.8337 8.3721C48.8255 7.99351 48.695 7.58642 48.5238 7.2404C47.8672 5.92959 46.7498 5.38816 45.3184 5.38816C34.6135 5.38816 23.9086 5.38816 13.2077 5.38816C13.1261 5.38816 13.0446 5.38816 12.963 5.38816C11.1809 5.44515 9.77805 6.65013 9.69649 8.36803C9.61085 10.1226 9.6761 11.8852 9.6761 13.6764L9.67202 13.6805Z" fill="white"/>
<path d="M31.1429 19.9695C30.9798 20.7471 30.8044 21.5979 30.625 22.4527C29.895 25.917 29.165 29.3813 28.431 32.8456C28.4065 32.9637 28.382 33.0858 28.3494 33.2039C28.2352 33.5947 27.9049 33.8267 27.5624 33.7616C27.1627 33.6842 26.918 33.3341 27.0037 32.9026C27.1749 32.0355 27.3625 31.1684 27.546 30.3014C28.2801 26.8248 29.0182 23.3483 29.7482 19.8678C29.8298 19.4892 29.9888 19.1961 30.4129 19.1472C30.8248 19.0984 31.1551 19.4403 31.147 19.9655L31.1429 19.9695Z" fill="#F4AB1D"/>
<path d="M21.4167 26.411C22.4321 27.2741 23.4068 28.1045 24.3814 28.9309C24.6628 29.1711 24.9523 29.399 25.2215 29.6474C25.56 29.9567 25.6008 30.376 25.3438 30.6651C25.0747 30.9663 24.6791 30.9948 24.3202 30.6936C22.8685 29.4723 21.4207 28.2429 19.9812 27.0054C19.5408 26.6268 19.5326 26.1953 19.973 25.8208C21.4126 24.5832 22.8562 23.3538 24.308 22.1326C24.6791 21.8191 25.1073 21.8476 25.3602 22.1692C25.6089 22.4827 25.5437 22.8897 25.1685 23.2113C24.0796 24.1436 22.9867 25.0717 21.8938 25.9999C21.747 26.122 21.6043 26.2482 21.4126 26.4151L21.4167 26.411Z" fill="#F4AB1D"/>
<path d="M37.0973 26.401C35.8821 25.3671 34.6953 24.3575 33.5127 23.352C33.4393 23.2909 33.3659 23.2299 33.2966 23.1647C32.9662 22.8513 32.9214 22.4442 33.1783 22.147C33.4352 21.8498 33.843 21.8254 34.2019 22.1267C35.4376 23.1606 36.661 24.2109 37.8885 25.2531C38.1168 25.4485 38.3534 25.6357 38.5695 25.8393C38.9569 26.2056 38.9773 26.6249 38.5777 26.971C37.1218 28.2289 35.6496 29.4745 34.1774 30.7121C33.8349 31.0011 33.4108 30.9563 33.1579 30.647C32.9173 30.3498 32.9703 29.9346 33.317 29.6333C34.4874 28.6278 35.6659 27.6345 36.8404 26.6372C36.9138 26.5761 36.9791 26.511 37.0973 26.4051V26.401Z" fill="#F4AB1D"/>
<path d="M11.185 9.5689C11.185 8.368 12.1637 7.38286 13.3668 7.37878C14.5575 7.37878 15.5608 8.37614 15.5608 9.56483C15.5608 10.7535 14.5616 11.759 13.3708 11.759C12.176 11.759 11.1891 10.7739 11.185 9.5689ZM14.1661 9.55669C14.162 9.13739 13.7949 8.77102 13.379 8.76695C12.9426 8.7588 12.5715 9.13332 12.5756 9.57705C12.5797 10.0004 12.9345 10.3627 13.3586 10.3668C13.7868 10.3749 14.1742 9.9882 14.1661 9.55669Z" fill="white"/>
<path d="M29.0347 9.60149C29.0347 10.8105 28.0682 11.7835 26.857 11.7835C25.6458 11.7835 24.6671 10.8187 24.6671 9.6137C24.6671 8.40873 25.6417 7.42765 26.8488 7.42358C28.0559 7.42358 29.0347 8.39652 29.0388 9.60149H29.0347ZM26.8488 8.81582C26.4206 8.81582 26.0699 9.16184 26.0577 9.58928C26.0495 10.0371 26.4043 10.3994 26.8529 10.3953C27.2852 10.3953 27.6318 10.0534 27.64 9.62592C27.6481 9.17812 27.2933 8.81582 26.8488 8.81582Z" fill="white"/>
<path d="M17.9261 9.58189C17.9261 8.36877 18.9007 7.40805 20.116 7.41212C21.3231 7.41619 22.2978 8.3932 22.2937 9.59817C22.2937 10.7991 21.3027 11.7801 20.0997 11.7761C18.8926 11.772 17.922 10.795 17.9261 9.58596V9.58189ZM20.0956 8.80028C19.6429 8.80435 19.3045 9.16666 19.3167 9.61853C19.3289 10.05 19.6837 10.3879 20.116 10.3838C20.5442 10.3798 20.8949 10.0297 20.899 9.60224C20.9031 9.15445 20.5442 8.79621 20.0956 8.80028Z" fill="white"/>
</g>
<defs>
<clipPath id="clip0_1_10228">
<rect width="42" height="37" fill="white" transform="translate(8.26101 4)"/>
</clipPath>
</defs>
</svg>
