<svg width="203" height="485" viewBox="0 0 203 485" fill="none" xmlns="http://www.w3.org/2000/svg">
<path d="M-229.16 316.133C-266.807 223.292 -216.053 115.006 -115.694 74.3107C-15.3345 33.6158 96.5033 75.9731 134.149 168.814C171.796 261.655 121.043 369.941 20.6831 410.636C-79.6764 451.331 -191.514 408.974 -229.16 316.133Z" stroke="#FFCC41"/>
<path d="M-185.311 293.158C-211.805 227.819 -176.09 151.591 -105.433 122.94C-34.776 94.2891 43.9429 124.115 70.4373 189.454C96.9316 254.793 61.2168 331.021 -9.44023 359.672C-80.0973 388.323 -158.816 358.497 -185.311 293.158Z" stroke="#FFCC41"/>
<path d="M-205.092 301.181C-236.126 224.647 -194.289 135.369 -111.542 101.815C-28.7939 68.262 63.4066 103.189 94.4404 179.723C125.474 256.257 83.6379 345.535 0.890105 379.088C-81.8577 412.642 -174.058 377.715 -205.092 301.181Z" stroke="white"/>
<path d="M-168.348 282.619C-190.183 228.772 -160.751 165.939 -102.505 142.321C-44.259 118.702 20.6217 143.293 42.4564 197.14C64.291 250.987 34.8598 313.82 -23.3864 337.439C-81.6327 361.057 -146.513 336.467 -168.348 282.619Z" stroke="white"/>
</svg>
