<svg width="48" height="29" viewBox="0 0 48 29" fill="none" xmlns="http://www.w3.org/2000/svg">
<path d="M37.5079 2.32029C36.8816 2.32444 36.3513 1.80435 36.341 1.17673C36.3307 0.534625 36.8702 -0.00716772 37.5121 7.17226e-05C38.1395 0.00626561 38.6614 0.534626 38.6592 1.16225C38.6583 1.78987 38.1343 2.31616 37.5079 2.32029Z" fill="#F4AB1D"/>
<path d="M1.17865 28.4243C0.553335 28.4346 0.0169109 27.9188 0.000373827 27.2921C-0.0161633 26.651 0.518197 26.1031 1.16005 26.1041C1.78743 26.1041 2.3135 26.6273 2.31868 27.2549C2.32384 27.8825 1.80499 28.414 1.17865 28.4243Z" fill="#F4AB1D"/>
<path d="M16.3104 1.5427C15.8836 1.54062 15.5301 1.17563 15.5425 0.74861C15.5549 0.336054 15.9032 -0.00205522 16.3156 9.40563e-06C16.7425 0.00207404 17.097 0.367077 17.0836 0.793066C17.0711 1.20562 16.7228 1.54373 16.3104 1.5427Z" fill="#F4AB1D"/>
<path d="M3.89355 9.89606C3.46668 9.9044 3.10597 9.54759 3.10804 9.11958C3.1101 8.70705 3.45118 8.36069 3.86358 8.35341C4.29044 8.34508 4.65219 8.70189 4.64909 9.12884C4.64598 9.54137 4.30594 9.88786 3.89355 9.89606Z" fill="white"/>
<path d="M45.754 11.0096C45.3272 11.0189 44.9654 10.6622 44.9675 10.2342C44.9696 9.82154 45.3096 9.47518 45.722 9.46698C46.1489 9.45758 46.5106 9.81439 46.5085 10.2413C46.5065 10.6539 46.1665 11.0004 45.754 11.0096Z" fill="white"/>
<path d="M45.742 26.4653C45.7586 26.0528 46.1121 25.7187 46.5234 25.7249C46.9503 25.7312 47.3006 26.1013 47.283 26.5263C47.2665 26.9388 46.9121 27.2738 46.5006 27.2676C46.0738 27.2615 45.7255 26.8923 45.742 26.4653Z" fill="#F4AB1D"/>
</svg>
