<svg width="38" height="43" viewBox="0 0 38 43" fill="none" xmlns="http://www.w3.org/2000/svg">
<path d="M36.5073 3.21873C35.9075 3.2227 35.3997 2.72461 35.3898 2.12353C35.38 1.50859 35.8967 0.989717 36.5114 0.996651C37.1122 1.00258 37.6121 1.50859 37.61 2.10967C37.6091 2.71074 37.1073 3.21478 36.5073 3.21873Z" fill="#F4AB1D"/>
<path d="M1.51881 35.2186C0.919944 35.2285 0.40621 34.7345 0.390373 34.1343C0.374535 33.5203 0.886292 32.9956 1.50099 32.9966C2.10183 32.9966 2.60566 33.4976 2.61061 34.0987C2.61556 34.6997 2.11866 35.2088 1.51881 35.2186Z" fill="#F4AB1D"/>
<path d="M12.1258 3.47403C11.717 3.47204 11.3784 3.12249 11.3903 2.71353C11.4022 2.31842 11.7358 1.99461 12.1307 1.99659C12.5395 1.99857 12.8791 2.34813 12.8662 2.7561C12.8543 3.15121 12.5207 3.47502 12.1258 3.47403Z" fill="#F4AB1D"/>
<path d="M1.14231 17.4741C0.7335 17.4821 0.388043 17.1404 0.390023 16.7305C0.392002 16.3354 0.718653 16.0037 1.11361 15.9967C1.52241 15.9887 1.86886 16.3305 1.86589 16.7393C1.86292 17.1344 1.53726 17.4663 1.14231 17.4741Z" fill="white"/>
<path d="M36.143 18.4742C35.7342 18.483 35.3877 18.1414 35.3897 17.7315C35.3917 17.3363 35.7174 17.0046 36.1123 16.9968C36.5212 16.9878 36.8676 17.3295 36.8655 17.7384C36.8636 18.1335 36.538 18.4653 36.143 18.4742Z" fill="white"/>
<path d="M35.3913 33.7057C35.4071 33.3106 35.7456 32.9907 36.1396 32.9967C36.5484 33.0026 36.8839 33.3571 36.8671 33.7641C36.8512 34.1592 36.5118 34.48 36.1178 34.4741C35.709 34.4682 35.3754 34.1146 35.3913 33.7057Z" fill="#F4AB1D"/>
<path d="M20.8519 7.01508H29.4048L7.63901 28.7864L3.34956 24.497L20.8519 7.01508ZM20.8932 24.0644H29.4291L21.177 32.3164L20.4703 33.0231L21.1766 33.7302L29.4312 41.995H20.8908L11.917 33.0212L20.8932 24.0644Z" stroke="white" stroke-width="2"/>
<path d="M11.39 16.4966L20.89 6.99658H29.39L15.39 20.9966" stroke="#F4AB1D" stroke-width="2"/>
</svg>
