<svg width="46" height="43" viewBox="0 0 46 43" fill="none" xmlns="http://www.w3.org/2000/svg">
<path d="M29.0887 6C29.6124 6.37068 29.662 6.63324 29.318 7.2078C28.8314 8.02329 28.3418 8.8357 27.8676 9.62339C28.5246 10.1022 29.2033 10.5223 29.7953 11.0412C31.9461 12.9317 33.037 15.3349 33.13 18.1861C33.1455 18.6865 32.8975 18.9491 32.4017 18.9861C32.3056 18.9923 32.2095 18.9861 32.1103 18.9861C26.2746 18.9861 20.442 18.9861 14.6062 18.9861C13.7539 18.9861 13.5463 18.773 13.6021 17.9328C13.8376 14.3279 15.536 11.6282 18.6599 9.81182C18.7219 9.77475 18.7808 9.7346 18.88 9.67591C18.6444 9.28051 18.4151 8.89439 18.1827 8.50518C17.9161 8.06036 17.6465 7.61863 17.3831 7.17382C17.0608 6.63016 17.1165 6.36759 17.631 6C17.7519 6 17.8727 6 17.9936 6C18.1672 6.17607 18.3748 6.33052 18.505 6.53749C19.0008 7.32209 19.475 8.11905 19.943 8.9191C20.0546 9.11062 20.1568 9.16004 20.3707 9.09209C22.3634 8.44031 24.3562 8.44031 26.349 9.09209C26.5597 9.16004 26.6651 9.11371 26.7767 8.92219C27.2446 8.12214 27.7219 7.32518 28.2147 6.54057C28.3448 6.3367 28.5525 6.17916 28.726 6.00309C28.8469 6.00309 28.9678 6.00309 29.0887 6.00309V6ZM31.7632 17.6702C31.5897 13.7379 28.0194 9.69444 22.9864 9.91067C18.1176 10.1207 15.0463 14.2229 14.9719 17.6702H31.7632Z" fill="white"/>
<path d="M17.4942 36.554C16.9425 36.5015 16.4374 36.5139 15.9632 36.3934C14.4942 36.0165 13.5923 34.818 13.5861 33.2488C13.5737 28.986 13.5799 24.7232 13.5861 20.4603C13.5861 19.8796 13.8248 19.6387 14.3981 19.6387C20.3795 19.6387 26.3609 19.6387 32.3423 19.6387C32.8971 19.6387 33.1388 19.8796 33.1388 20.4356C33.1419 24.7232 33.1605 29.0076 33.1326 33.2951C33.1202 35.2196 31.7566 36.4922 29.8196 36.5046C29.6399 36.5046 29.4632 36.5046 29.2339 36.5046C29.2339 36.6745 29.2339 36.8135 29.2339 36.9525C29.2184 38.2159 29.2649 39.4824 29.1719 40.7427C29.0758 42.0401 27.9291 42.9915 26.6306 42.9977C25.3537 43.0038 24.2442 42.0679 24.0675 40.7921C24.0056 40.3411 24.0242 39.8809 24.0211 39.4237C24.0149 38.463 24.0211 37.5023 24.0211 36.5231H22.7163C22.7163 36.6529 22.7163 36.7826 22.7163 36.9092C22.7163 38.0645 22.7349 39.2229 22.7101 40.3782C22.676 42.2254 20.9715 43.4239 19.2359 42.8432C18.207 42.4972 17.5128 41.4964 17.5004 40.2979C17.488 39.1797 17.5004 38.0584 17.5004 36.9371C17.5004 36.8073 17.5004 36.6776 17.5004 36.5509L17.4942 36.554ZM14.8878 20.9546C14.8878 21.1461 14.8878 21.2882 14.8878 21.4303C14.8878 23.8274 14.8878 26.2213 14.8878 28.6184C14.8878 30.1598 14.8816 31.7012 14.8878 33.2426C14.894 34.4473 15.6595 35.1949 16.8651 35.2072C17.2029 35.2103 17.5407 35.2072 17.8785 35.2072C18.5789 35.2072 18.7927 35.4173 18.7927 36.1061C18.7927 37.4776 18.7865 38.8522 18.7989 40.2237C18.7989 40.4585 18.8361 40.7087 18.9229 40.9249C19.143 41.481 19.7659 41.793 20.3392 41.6787C20.9622 41.552 21.393 41.0485 21.3961 40.3936C21.4054 38.948 21.3961 37.5054 21.4023 36.0598C21.4023 35.4482 21.6409 35.2103 22.2607 35.2072C22.9363 35.2041 23.6151 35.2072 24.2907 35.2072C25.1368 35.2072 25.3134 35.3833 25.3134 36.2204C25.3134 37.6166 25.3072 39.0129 25.3165 40.4091C25.3196 40.9682 25.5985 41.379 26.113 41.5953C26.6151 41.8084 27.0861 41.7126 27.4921 41.3512C27.8113 41.067 27.9198 40.6933 27.9198 40.2793C27.9198 38.8708 27.9198 37.4622 27.9198 36.0536C27.9198 35.4358 28.1492 35.2103 28.7752 35.2072C29.0882 35.2072 29.4043 35.2072 29.7173 35.2072C31.0934 35.2072 31.8248 34.4813 31.8248 33.1191C31.8248 29.1929 31.8248 25.2699 31.8248 21.3438V20.9546H14.8847H14.8878Z" fill="white"/>
<path d="M12.9325 26.4462C12.9325 27.9382 12.9449 29.4302 12.9294 30.9221C12.9139 32.3647 11.8385 33.347 10.4284 33.242C9.28477 33.1555 8.3984 32.2072 8.38601 30.9252C8.35811 27.9413 8.34572 24.9573 8.38601 21.9733C8.4139 20.1107 10.2548 19.0542 11.8075 19.9562C12.4893 20.3516 12.8984 20.9601 12.9108 21.7509C12.9387 23.3139 12.9201 24.8801 12.9201 26.4431C12.9232 26.4431 12.9263 26.4431 12.9325 26.4431V26.4462ZM11.6277 26.4802C11.6277 24.9758 11.6339 23.4715 11.6277 21.9671C11.6246 21.303 11.166 20.8891 10.5461 20.9509C10.0162 21.0034 9.68146 21.4142 9.68146 22.0536C9.67836 24.9913 9.68146 27.9258 9.68146 30.8635C9.68146 30.9932 9.69696 31.1291 9.73105 31.2558C9.87051 31.7963 10.4594 32.0991 10.9862 31.9106C11.4077 31.7593 11.6277 31.4226 11.6308 30.8882C11.6339 29.4209 11.6308 27.9505 11.6308 26.4833L11.6277 26.4802Z" fill="#F4AB1D"/>
<path d="M33.7897 26.4459C33.7897 24.9539 33.7773 23.462 33.7928 21.97C33.8083 20.5151 34.9054 19.5328 36.3341 19.6594C37.4591 19.7583 38.3238 20.7035 38.3362 21.9731C38.3641 24.957 38.361 27.941 38.3362 30.925C38.3207 32.9019 36.3001 33.7792 34.9054 32.9359C34.2329 32.5313 33.8176 31.9289 33.8052 31.1381C33.7804 29.5751 33.799 28.009 33.799 26.4459H33.7897ZM35.0914 26.4459C35.0914 26.7239 35.0914 26.9989 35.0914 27.2769C35.0914 28.5032 35.0852 29.7326 35.0945 30.959C35.1007 31.5675 35.5191 31.9721 36.0924 31.9567C36.6813 31.9413 37.0408 31.5057 37.0408 30.786C37.0408 27.8978 37.0408 25.0095 37.0408 22.1213C37.0408 21.9792 37.0315 21.831 37.0005 21.692C36.9075 21.2564 36.5449 20.9599 36.1017 20.9444C35.516 20.9228 35.0976 21.3367 35.0945 21.97C35.0883 23.462 35.0945 24.9539 35.0945 26.4459H35.0914Z" fill="#F4AB1D"/>
<path d="M20.1105 14.2763C20.0982 14.4401 20.1167 14.6285 20.0641 14.7953C19.9742 15.0733 19.7201 15.1165 19.469 15.0887C19.1095 15.0486 18.6106 15.2834 18.4494 14.8046C18.3347 14.4617 18.3285 14.0169 18.4432 13.674C18.6198 13.1489 19.1467 13.433 19.5248 13.3774C19.7696 13.3404 19.999 13.4238 20.0703 13.6863C20.1198 13.8686 20.0982 14.0663 20.1075 14.2763H20.1105Z" fill="#F4AB1D"/>
<path d="M26.6247 14.2251C26.6247 14.0799 26.5782 13.9131 26.6371 13.7988C26.7208 13.6382 26.8665 13.4312 27.0183 13.4004C27.3189 13.3386 27.6475 13.3478 27.9512 13.4004C28.0875 13.4251 28.2797 13.6073 28.3014 13.7401C28.351 14.0676 28.3975 14.4352 28.2983 14.7379C28.0937 15.3557 27.5235 15.0375 27.1082 15.0808C26.8014 15.1147 26.6216 14.9109 26.6247 14.5865C26.6247 14.4661 26.6247 14.3456 26.6247 14.2251C26.6247 14.2251 26.6247 14.2251 26.6278 14.2251H26.6247Z" fill="#F4AB1D"/>
<path d="M36.2799 2.22215C35.6801 2.22612 35.1723 1.72803 35.1624 1.12695C35.1525 0.512012 35.6692 -0.00686454 36.284 6.86888e-05C36.8848 0.00600059 37.3846 0.512012 37.3826 1.11309C37.3817 1.71416 36.8799 2.21819 36.2799 2.22215Z" fill="#F4AB1D"/>
<path d="M1.48707 27.2221C0.888206 27.2319 0.374472 26.7379 0.358634 26.1377C0.342797 25.5237 0.854554 24.999 1.46926 25C2.0701 25 2.57392 25.501 2.57888 26.1021C2.58382 26.7031 2.08692 27.2122 1.48707 27.2221Z" fill="#F4AB1D"/>
<path d="M15.979 1.47744C15.5702 1.47545 15.2317 1.1259 15.2436 0.716945C15.2555 0.32184 15.5891 -0.00196829 15.984 9.00779e-06C16.3928 0.00198631 16.7323 0.35155 16.7195 0.759521C16.7076 1.15463 16.374 1.47843 15.979 1.47744Z" fill="#F4AB1D"/>
<path d="M4.08744 9.47754C3.67863 9.48552 3.33317 9.1438 3.33515 8.73389C3.33713 8.33881 3.66378 8.00711 4.05874 8.00014C4.46754 7.99215 4.81399 8.33387 4.81102 8.74277C4.80805 9.13785 4.48239 9.46968 4.08744 9.47754Z" fill="white"/>
<path d="M44.177 10.544C43.7682 10.5529 43.4217 10.2113 43.4237 9.80135C43.4257 9.40614 43.7514 9.07444 44.1463 9.06658C44.5552 9.05758 44.9016 9.3993 44.8995 9.80819C44.8976 10.2033 44.572 10.5351 44.177 10.544Z" fill="white"/>
<path d="M44.1652 25.3458C44.181 24.9508 44.5196 24.6308 44.9135 24.6368C45.3223 24.6428 45.6579 24.9973 45.641 25.4043C45.6252 25.7994 45.2857 26.1202 44.8917 26.1142C44.483 26.1084 44.1494 25.7547 44.1652 25.3458Z" fill="#F4AB1D"/>
</svg>
