<svg width="17" height="16" viewBox="0 0 17 16" fill="none" xmlns="http://www.w3.org/2000/svg">
<path fill-rule="evenodd" clip-rule="evenodd" d="M2.23078 2.38925C2.23234 2.38925 2.19332 2.42983 2.14415 2.47822C1.95528 2.66163 1.56426 3.04328 1.56032 3.8417C1.55412 4.95855 2.28854 7.03225 5.82483 10.5678C9.34474 14.0861 11.4153 14.8291 12.5345 14.8291H12.5509C13.3493 14.8252 13.7302 14.4334 13.9144 14.2453C13.9706 14.1876 14.0158 14.1454 14.0478 14.1189C14.8252 13.3369 15.2232 12.7546 15.2194 12.3816C15.2139 12.0007 14.7401 11.5504 14.0853 10.9276C13.8769 10.7293 13.6506 10.5139 13.4118 10.2751C12.7929 9.65775 12.4861 9.76311 11.8118 10.0004C10.8791 10.3274 9.59918 10.7723 7.61054 8.78284C5.61879 6.79265 6.06444 5.51424 6.39067 4.58158C6.62637 3.90726 6.73408 3.59975 6.11439 2.98006C5.87166 2.73812 5.65391 2.50866 5.45333 2.29793C4.83442 1.64702 4.38799 1.1764 4.00947 1.17094H4.00322C3.62938 1.17094 3.04871 1.57054 2.22688 2.39237C2.22922 2.39003 2.23078 2.38925 2.23078 2.38925ZM12.5353 15.9998C10.5904 15.9998 8.05463 14.4514 4.99754 11.3958C1.92874 8.32783 0.37795 5.78428 0.389591 3.83546C0.396681 2.54768 1.07179 1.88819 1.32544 1.64078C1.33871 1.62439 1.38397 1.5799 1.39958 1.56429C2.51877 0.444322 3.27349 -0.00834907 4.0243 0.000116397C4.89608 0.0119431 5.51655 0.664414 6.3017 1.49093C6.49604 1.69541 6.70676 1.91785 6.94168 2.15199C8.08117 3.29147 7.75649 4.22101 7.49582 4.96713C7.21173 5.78116 6.96588 6.48358 8.43784 7.95555C9.91136 9.42751 10.6138 9.18166 11.4247 8.89523C12.1716 8.63455 13.0988 8.30832 14.2398 9.4478C14.4709 9.67882 14.6902 9.8872 14.8923 10.08C15.7227 10.869 16.3783 11.4926 16.3894 12.3667C16.3986 13.1121 15.9459 13.8715 14.8283 14.9899L14.3335 14.6543L14.7518 15.0633C14.5044 15.3169 13.8457 15.9928 12.5571 15.9998H12.5353Z" fill="#F4AB1D"/>
</svg>
