<svg width="19" height="16" viewBox="0 0 19 16" fill="none" xmlns="http://www.w3.org/2000/svg">
<path fill-rule="evenodd" clip-rule="evenodd" d="M13.4994 0C16.2873 0 18.3895 2.22933 18.3895 5.18564V10.8209C18.3895 12.3339 17.8437 13.7009 16.8516 14.6708C15.9616 15.5397 14.8071 16 13.5128 16H5.26376C3.97194 16 2.81827 15.5405 1.92748 14.6708C0.935387 13.7009 0.389526 12.3339 0.389526 10.8209V5.18564C0.389526 2.22933 2.49176 0 5.27967 0H13.4994ZM13.4994 1.23077H5.27967C3.17408 1.23077 1.64534 2.89395 1.64534 5.18564V10.8209C1.64534 12.0049 2.0606 13.0626 2.81408 13.7986C3.46376 14.4345 4.31185 14.7692 5.26627 14.7692H13.4994C13.5011 14.7676 13.5078 14.7692 13.5128 14.7692C14.468 14.7692 15.3153 14.4345 15.965 13.7986C16.7193 13.0626 17.1337 12.0049 17.1337 10.8209V5.18564C17.1337 2.89395 15.605 1.23077 13.4994 1.23077ZM14.8188 5.02876C15.0373 5.29214 14.9963 5.67943 14.7276 5.8944L11.007 8.85809C10.5365 9.22404 9.9739 9.40702 9.41213 9.40702C8.85204 9.40702 8.29362 9.22568 7.82646 8.86302L4.07157 5.89604C3.80115 5.68271 3.75929 5.29461 3.97613 5.0304C4.19464 4.76702 4.58981 4.72517 4.85939 4.93768L8.61092 7.90137C9.08227 8.26732 9.74618 8.26732 10.2209 7.89809L13.9347 4.93932C14.2043 4.72353 14.5995 4.76455 14.8188 5.02876Z" fill="#F4AB1D"/>
</svg>
