<svg width="15" height="16" viewBox="0 0 15 16" fill="none" xmlns="http://www.w3.org/2000/svg">
<path fill-rule="evenodd" clip-rule="evenodd" d="M7.58183 0C11.5476 0 14.7741 3.05969 14.7741 6.82092C14.7741 11.4445 9.14583 16 7.58183 16C6.01783 16 0.389526 11.4445 0.389526 6.82092C0.389526 3.05969 3.61604 0 7.58183 0ZM7.58183 1.23077C4.33701 1.23077 1.69722 3.73908 1.69722 6.82092C1.69722 10.7422 6.60019 14.5625 7.58183 14.7659C8.56348 14.5616 13.4664 10.7413 13.4664 6.82092C13.4664 3.73908 10.8267 1.23077 7.58183 1.23077ZM7.58271 4.10256C9.14496 4.10256 10.416 5.29887 10.416 6.77005C10.416 8.24041 9.14496 9.4359 7.58271 9.4359C6.02045 9.4359 4.74937 8.24041 4.74937 6.77005C4.74937 5.29887 6.02045 4.10256 7.58271 4.10256ZM7.58271 5.33333C6.74142 5.33333 6.05707 5.97744 6.05707 6.77005C6.05707 7.56185 6.74142 8.20513 7.58271 8.20513C8.42399 8.20513 9.10835 7.56185 9.10835 6.77005C9.10835 5.97744 8.42399 5.33333 7.58271 5.33333Z" fill="#F4AB1D"/>
</svg>
