<svg width="36" height="39" viewBox="0 0 36 39" fill="none" xmlns="http://www.w3.org/2000/svg">
<g clip-path="url(#clip0_1_10248)">
<mask id="path-1-inside-1_1_10248" fill="white">
<path d="M8.21566 39.0009V37.7398C8.82776 37.7398 9.42754 37.7158 10.0273 37.7501C10.3718 37.7672 10.4826 37.661 10.461 37.2669C10.4303 36.609 10.4518 35.951 10.4518 35.2451C10.298 35.2383 10.1657 35.2246 10.0335 35.2246C7.78812 35.2246 5.54583 35.2177 3.30047 35.2246C2.07321 35.228 1.12585 34.6831 0.587576 33.4392C0.396874 32.9972 0.295372 32.466 0.295372 31.9726C0.279992 25.753 0.283068 19.5334 0.28922 13.3138C0.28922 11.3846 1.53186 10.0618 3.30662 10.0618C7.79427 10.0584 12.2819 10.0618 16.7727 10.0618H17.2279C17.2279 9.58552 17.2402 9.13319 17.2217 8.68085C17.2125 8.44098 17.2648 8.28678 17.4893 8.24908C18.2983 8.12229 18.8181 7.65968 18.9503 6.72074C18.975 6.55283 19.0519 6.37464 19.1472 6.241C19.4609 5.79552 19.3748 5.39459 19.1411 4.93197C18.7566 4.17123 18.7812 4.15752 19.3318 3.54413C19.8639 2.9513 20.3929 2.35847 20.9496 1.73823C21.3126 1.94041 21.6694 2.15972 22.0416 2.33449C22.1646 2.39274 22.3461 2.38589 22.4753 2.33449C22.9951 2.11517 23.5087 1.8753 24.0132 1.61829C24.1393 1.55318 24.2746 1.42297 24.3238 1.2859C24.4746 0.878112 24.5822 0.449766 24.7176 0.004287C25.6895 0.004287 26.6553 0.000860237 27.6211 0.0145673C27.698 0.0145673 27.8118 0.131077 27.8426 0.2236C27.9933 0.648519 28.0241 1.17967 28.2794 1.48465C28.5224 1.7725 28.9899 1.82733 29.359 1.98496C29.3805 1.99524 29.4051 1.99866 29.4205 2.0158C30.0049 2.52981 30.574 2.43729 31.143 1.9781C31.2599 1.88215 31.4044 1.82733 31.5121 1.76907C32.2472 2.58464 32.9639 3.38308 33.7021 4.2055C33.536 4.57216 33.3422 4.95939 33.1915 5.36717C33.1361 5.51452 33.1423 5.73041 33.1915 5.88119C33.3853 6.46031 33.6098 7.02915 33.8282 7.598C33.8651 7.69737 33.9112 7.83444 33.982 7.86186C34.4095 8.02634 34.8432 8.16341 35.2769 8.30734V32.4489C35.1846 32.7744 35.1262 33.1171 34.9909 33.4187C34.428 34.6694 33.4929 35.228 32.2534 35.2246C30.0111 35.2177 27.7688 35.2246 25.5234 35.2246C25.3912 35.2246 25.262 35.2383 25.1082 35.2451C25.1082 35.951 25.1328 36.6124 25.099 37.2703C25.0805 37.6679 25.1943 37.7672 25.5357 37.7501C26.1355 37.7193 26.7353 37.7398 27.3443 37.7398V39.0009H8.21566ZM17.234 11.3537C17.0864 11.3434 16.988 11.3332 16.8865 11.3332C12.3527 11.3332 7.81888 11.3332 3.28509 11.3332C3.08208 11.3332 2.87293 11.3434 2.67607 11.4017C1.8456 11.645 1.41805 12.3612 1.41805 13.4852C1.41805 18.9063 1.41805 24.324 1.41805 29.7452C1.41805 29.8788 1.43036 30.0159 1.43651 30.1632H34.1327V12.2584C34.1019 12.2413 34.0743 12.2241 34.0435 12.2036C33.9728 12.3167 33.8836 12.4195 33.8343 12.5428C33.6129 13.1117 33.3914 13.6805 33.1976 14.2596C33.1454 14.4138 33.1484 14.6229 33.1976 14.7736C33.3053 15.0923 33.4499 15.3973 33.6067 15.692C33.7113 15.8908 33.6898 16.0141 33.5391 16.1752C33.0069 16.7475 32.4871 17.3369 31.9642 17.9228C31.549 18.3854 31.5275 18.4266 31.0169 18.0736C30.5032 17.7172 30.0388 17.6247 29.5374 18.0531C29.4482 18.1284 29.3344 18.1901 29.2267 18.2073C28.387 18.3375 27.9964 18.9269 27.8795 19.811C27.8488 20.0474 27.7288 20.1297 27.5043 20.1262C26.7076 20.1091 25.9079 20.0954 25.1113 20.1297C24.7821 20.1434 24.6284 20.0234 24.5791 19.6842C24.4623 18.896 24.1178 18.3478 23.3488 18.245C23.315 18.2415 23.2842 18.2175 23.2535 18.2038C22.9028 18.0325 22.5491 17.7172 22.2046 17.7275C21.8539 17.7378 21.5064 18.0633 21.168 18.2689C20.9958 18.3752 20.8912 18.3409 20.7589 18.1867C20.356 17.7207 19.9377 17.2683 19.5317 16.8091C19.2856 16.5316 18.895 16.2677 18.8488 15.949C18.8027 15.6303 19.0888 15.2397 19.261 14.9004C19.3994 14.6297 19.421 14.4104 19.261 14.1397C19.1134 13.8895 18.9627 13.6051 18.9227 13.3173C18.7996 12.4332 18.2921 12.0494 17.5693 11.9054C17.3109 11.854 17.151 11.7238 17.231 11.3537H17.234ZM34.1358 31.486H1.39345C1.42421 31.8698 1.4119 32.233 1.4888 32.5723C1.6918 33.4769 2.36234 33.9704 3.32815 33.9704C12.9648 33.9704 22.5983 33.9704 32.2349 33.9704C32.3487 33.9704 32.4625 33.9704 32.5763 33.9601C33.1054 33.9087 33.5298 33.6414 33.8405 33.1617C34.1635 32.6682 34.1727 32.0994 34.1358 31.486ZM32.3549 15.74C32.1918 15.3733 32.0504 15.0409 31.8935 14.7188C31.8012 14.5338 31.792 14.3933 31.9058 14.2014C32.3825 13.4029 32.6932 12.5188 32.8931 11.5868C32.9208 11.4565 33.0377 11.3126 33.1484 11.2544C33.4683 11.0796 33.9389 11.0453 34.0989 10.7712C34.268 10.4868 34.145 9.98645 34.1481 9.58209C34.1481 9.5581 34.1573 9.52384 34.1481 9.5067C34.0804 9.39705 34.0281 9.23942 33.9328 9.19144C33.6867 9.06808 33.4099 9.00982 33.1638 8.88646C33.05 8.8282 32.9239 8.69113 32.8962 8.56434C32.6963 7.61856 32.3672 6.73445 31.9089 5.90517C31.8443 5.78866 31.8474 5.57278 31.8966 5.43571C32.0227 5.08618 32.1918 4.75378 32.318 4.47279C31.9735 4.06158 31.6566 3.6812 31.3398 3.30083C31.0323 3.45847 30.7185 3.60582 30.4202 3.78401C30.2479 3.88681 30.128 3.86282 29.9557 3.76345C29.4144 3.44818 28.8761 3.05411 28.2917 2.91018C27.5658 2.73199 27.1505 2.36533 27.0583 1.54633C27.0367 1.34415 26.9322 1.2482 26.7292 1.25848C26.4123 1.27562 26.0925 1.27562 25.7726 1.25848C25.5726 1.2482 25.4896 1.34415 25.4373 1.5429C25.3604 1.83418 25.2804 2.12545 25.1697 2.40302C25.1297 2.50925 25.019 2.63262 24.9236 2.6566C24.047 2.87592 23.2381 3.25629 22.4783 3.79086C22.3953 3.84912 22.2415 3.84912 22.1431 3.80799C21.7986 3.66407 21.4326 3.30426 21.1373 3.3728C20.8297 3.44476 20.6021 3.92108 20.3253 4.2055C20.1838 4.34942 20.153 4.47279 20.2545 4.66126C20.3806 4.90113 20.4667 5.16842 20.599 5.40487C20.7128 5.60705 20.679 5.75097 20.5867 5.95315C20.2945 6.59395 19.9408 7.22791 19.7901 7.91669C19.6363 8.6226 19.3656 9.04066 18.7227 9.12976C18.3936 9.17431 18.3013 9.38334 18.3352 9.72944C18.369 10.1064 18.246 10.5759 18.4059 10.8397C18.5566 11.083 18.9903 11.1241 19.3041 11.2235C19.5102 11.2886 19.5717 11.4291 19.6332 11.6416C19.8054 12.255 19.9192 12.9266 20.2299 13.4475C20.6667 14.1842 20.7313 14.8182 20.2514 15.5207C20.2053 15.5858 20.1991 15.7605 20.2453 15.8154C20.5406 16.1649 20.8143 16.6035 21.1834 16.7852C21.3833 16.8811 21.7617 16.5247 22.0569 16.3739C22.0785 16.3637 22.0969 16.3397 22.1185 16.3397C22.2507 16.3431 22.3984 16.3123 22.5122 16.3705C23.112 16.6652 23.681 17.1004 24.3085 17.2649C24.9667 17.4362 25.3173 17.7755 25.4127 18.4883C25.4558 18.8104 25.6095 18.9235 25.9018 18.8892C26.2493 18.8515 26.683 18.992 26.9291 18.8069C27.1567 18.6356 27.1659 18.125 27.3074 17.7823C27.3628 17.6487 27.4981 17.5185 27.6242 17.4636C28.184 17.2238 28.8207 17.1175 29.3036 16.7612C29.9619 16.2746 30.5124 16.2369 31.1338 16.7475C31.2014 16.8023 31.3952 16.7646 31.469 16.6892C31.7674 16.3979 32.0442 16.0758 32.3518 15.7434L32.3549 15.74ZM11.5837 37.7158H23.9793V35.2486H11.5837V37.7158Z"/>
</mask>
<path d="M8.21566 39.0009V37.7398C8.82776 37.7398 9.42754 37.7158 10.0273 37.7501C10.3718 37.7672 10.4826 37.661 10.461 37.2669C10.4303 36.609 10.4518 35.951 10.4518 35.2451C10.298 35.2383 10.1657 35.2246 10.0335 35.2246C7.78812 35.2246 5.54583 35.2177 3.30047 35.2246C2.07321 35.228 1.12585 34.6831 0.587576 33.4392C0.396874 32.9972 0.295372 32.466 0.295372 31.9726C0.279992 25.753 0.283068 19.5334 0.28922 13.3138C0.28922 11.3846 1.53186 10.0618 3.30662 10.0618C7.79427 10.0584 12.2819 10.0618 16.7727 10.0618H17.2279C17.2279 9.58552 17.2402 9.13319 17.2217 8.68085C17.2125 8.44098 17.2648 8.28678 17.4893 8.24908C18.2983 8.12229 18.8181 7.65968 18.9503 6.72074C18.975 6.55283 19.0519 6.37464 19.1472 6.241C19.4609 5.79552 19.3748 5.39459 19.1411 4.93197C18.7566 4.17123 18.7812 4.15752 19.3318 3.54413C19.8639 2.9513 20.3929 2.35847 20.9496 1.73823C21.3126 1.94041 21.6694 2.15972 22.0416 2.33449C22.1646 2.39274 22.3461 2.38589 22.4753 2.33449C22.9951 2.11517 23.5087 1.8753 24.0132 1.61829C24.1393 1.55318 24.2746 1.42297 24.3238 1.2859C24.4746 0.878112 24.5822 0.449766 24.7176 0.004287C25.6895 0.004287 26.6553 0.000860237 27.6211 0.0145673C27.698 0.0145673 27.8118 0.131077 27.8426 0.2236C27.9933 0.648519 28.0241 1.17967 28.2794 1.48465C28.5224 1.7725 28.9899 1.82733 29.359 1.98496C29.3805 1.99524 29.4051 1.99866 29.4205 2.0158C30.0049 2.52981 30.574 2.43729 31.143 1.9781C31.2599 1.88215 31.4044 1.82733 31.5121 1.76907C32.2472 2.58464 32.9639 3.38308 33.7021 4.2055C33.536 4.57216 33.3422 4.95939 33.1915 5.36717C33.1361 5.51452 33.1423 5.73041 33.1915 5.88119C33.3853 6.46031 33.6098 7.02915 33.8282 7.598C33.8651 7.69737 33.9112 7.83444 33.982 7.86186C34.4095 8.02634 34.8432 8.16341 35.2769 8.30734V32.4489C35.1846 32.7744 35.1262 33.1171 34.9909 33.4187C34.428 34.6694 33.4929 35.228 32.2534 35.2246C30.0111 35.2177 27.7688 35.2246 25.5234 35.2246C25.3912 35.2246 25.262 35.2383 25.1082 35.2451C25.1082 35.951 25.1328 36.6124 25.099 37.2703C25.0805 37.6679 25.1943 37.7672 25.5357 37.7501C26.1355 37.7193 26.7353 37.7398 27.3443 37.7398V39.0009H8.21566ZM17.234 11.3537C17.0864 11.3434 16.988 11.3332 16.8865 11.3332C12.3527 11.3332 7.81888 11.3332 3.28509 11.3332C3.08208 11.3332 2.87293 11.3434 2.67607 11.4017C1.8456 11.645 1.41805 12.3612 1.41805 13.4852C1.41805 18.9063 1.41805 24.324 1.41805 29.7452C1.41805 29.8788 1.43036 30.0159 1.43651 30.1632H34.1327V12.2584C34.1019 12.2413 34.0743 12.2241 34.0435 12.2036C33.9728 12.3167 33.8836 12.4195 33.8343 12.5428C33.6129 13.1117 33.3914 13.6805 33.1976 14.2596C33.1454 14.4138 33.1484 14.6229 33.1976 14.7736C33.3053 15.0923 33.4499 15.3973 33.6067 15.692C33.7113 15.8908 33.6898 16.0141 33.5391 16.1752C33.0069 16.7475 32.4871 17.3369 31.9642 17.9228C31.549 18.3854 31.5275 18.4266 31.0169 18.0736C30.5032 17.7172 30.0388 17.6247 29.5374 18.0531C29.4482 18.1284 29.3344 18.1901 29.2267 18.2073C28.387 18.3375 27.9964 18.9269 27.8795 19.811C27.8488 20.0474 27.7288 20.1297 27.5043 20.1262C26.7076 20.1091 25.9079 20.0954 25.1113 20.1297C24.7821 20.1434 24.6284 20.0234 24.5791 19.6842C24.4623 18.896 24.1178 18.3478 23.3488 18.245C23.315 18.2415 23.2842 18.2175 23.2535 18.2038C22.9028 18.0325 22.5491 17.7172 22.2046 17.7275C21.8539 17.7378 21.5064 18.0633 21.168 18.2689C20.9958 18.3752 20.8912 18.3409 20.7589 18.1867C20.356 17.7207 19.9377 17.2683 19.5317 16.8091C19.2856 16.5316 18.895 16.2677 18.8488 15.949C18.8027 15.6303 19.0888 15.2397 19.261 14.9004C19.3994 14.6297 19.421 14.4104 19.261 14.1397C19.1134 13.8895 18.9627 13.6051 18.9227 13.3173C18.7996 12.4332 18.2921 12.0494 17.5693 11.9054C17.3109 11.854 17.151 11.7238 17.231 11.3537H17.234ZM34.1358 31.486H1.39345C1.42421 31.8698 1.4119 32.233 1.4888 32.5723C1.6918 33.4769 2.36234 33.9704 3.32815 33.9704C12.9648 33.9704 22.5983 33.9704 32.2349 33.9704C32.3487 33.9704 32.4625 33.9704 32.5763 33.9601C33.1054 33.9087 33.5298 33.6414 33.8405 33.1617C34.1635 32.6682 34.1727 32.0994 34.1358 31.486ZM32.3549 15.74C32.1918 15.3733 32.0504 15.0409 31.8935 14.7188C31.8012 14.5338 31.792 14.3933 31.9058 14.2014C32.3825 13.4029 32.6932 12.5188 32.8931 11.5868C32.9208 11.4565 33.0377 11.3126 33.1484 11.2544C33.4683 11.0796 33.9389 11.0453 34.0989 10.7712C34.268 10.4868 34.145 9.98645 34.1481 9.58209C34.1481 9.5581 34.1573 9.52384 34.1481 9.5067C34.0804 9.39705 34.0281 9.23942 33.9328 9.19144C33.6867 9.06808 33.4099 9.00982 33.1638 8.88646C33.05 8.8282 32.9239 8.69113 32.8962 8.56434C32.6963 7.61856 32.3672 6.73445 31.9089 5.90517C31.8443 5.78866 31.8474 5.57278 31.8966 5.43571C32.0227 5.08618 32.1918 4.75378 32.318 4.47279C31.9735 4.06158 31.6566 3.6812 31.3398 3.30083C31.0323 3.45847 30.7185 3.60582 30.4202 3.78401C30.2479 3.88681 30.128 3.86282 29.9557 3.76345C29.4144 3.44818 28.8761 3.05411 28.2917 2.91018C27.5658 2.73199 27.1505 2.36533 27.0583 1.54633C27.0367 1.34415 26.9322 1.2482 26.7292 1.25848C26.4123 1.27562 26.0925 1.27562 25.7726 1.25848C25.5726 1.2482 25.4896 1.34415 25.4373 1.5429C25.3604 1.83418 25.2804 2.12545 25.1697 2.40302C25.1297 2.50925 25.019 2.63262 24.9236 2.6566C24.047 2.87592 23.2381 3.25629 22.4783 3.79086C22.3953 3.84912 22.2415 3.84912 22.1431 3.80799C21.7986 3.66407 21.4326 3.30426 21.1373 3.3728C20.8297 3.44476 20.6021 3.92108 20.3253 4.2055C20.1838 4.34942 20.153 4.47279 20.2545 4.66126C20.3806 4.90113 20.4667 5.16842 20.599 5.40487C20.7128 5.60705 20.679 5.75097 20.5867 5.95315C20.2945 6.59395 19.9408 7.22791 19.7901 7.91669C19.6363 8.6226 19.3656 9.04066 18.7227 9.12976C18.3936 9.17431 18.3013 9.38334 18.3352 9.72944C18.369 10.1064 18.246 10.5759 18.4059 10.8397C18.5566 11.083 18.9903 11.1241 19.3041 11.2235C19.5102 11.2886 19.5717 11.4291 19.6332 11.6416C19.8054 12.255 19.9192 12.9266 20.2299 13.4475C20.6667 14.1842 20.7313 14.8182 20.2514 15.5207C20.2053 15.5858 20.1991 15.7605 20.2453 15.8154C20.5406 16.1649 20.8143 16.6035 21.1834 16.7852C21.3833 16.8811 21.7617 16.5247 22.0569 16.3739C22.0785 16.3637 22.0969 16.3397 22.1185 16.3397C22.2507 16.3431 22.3984 16.3123 22.5122 16.3705C23.112 16.6652 23.681 17.1004 24.3085 17.2649C24.9667 17.4362 25.3173 17.7755 25.4127 18.4883C25.4558 18.8104 25.6095 18.9235 25.9018 18.8892C26.2493 18.8515 26.683 18.992 26.9291 18.8069C27.1567 18.6356 27.1659 18.125 27.3074 17.7823C27.3628 17.6487 27.4981 17.5185 27.6242 17.4636C28.184 17.2238 28.8207 17.1175 29.3036 16.7612C29.9619 16.2746 30.5124 16.2369 31.1338 16.7475C31.2014 16.8023 31.3952 16.7646 31.469 16.6892C31.7674 16.3979 32.0442 16.0758 32.3518 15.7434L32.3549 15.74ZM11.5837 37.7158H23.9793V35.2486H11.5837V37.7158Z" fill="white" stroke="white" stroke-width="6" mask="url(#path-1-inside-1_1_10248)"/>
<path d="M7.06851 15.0641V13.875H17.7632V15.0641H7.06851Z" fill="#F4AB1D"/>
<path d="M17.7667 20.1051H7.07812V18.9023H17.7667V20.1051Z" fill="#F4AB1D"/>
<path d="M7.07812 21.4062H17.7636V22.609H7.07812V21.4062Z" fill="#F4AB1D"/>
<path d="M17.7759 26.4512V27.6403H7.07812V26.4512H17.7759Z" fill="#F4AB1D"/>
<path d="M2.55957 17.0071C3.39312 16.7946 3.68225 16.4006 3.6761 15.4616C3.66995 14.8482 3.73762 14.2726 4.14055 13.8065C4.62654 13.2411 5.23863 13.1589 5.91531 13.224V14.4713C5.78305 14.4713 5.65079 14.4713 5.52161 14.4713C5.00486 14.4782 4.79878 14.7009 4.80493 15.2869C4.81416 15.9311 4.76187 16.5548 4.42045 17.1031C4.30972 17.2778 4.18361 17.4389 4.04828 17.6308C4.6819 18.275 4.83262 19.1009 4.80801 20.0124C4.79263 20.5264 5.02332 20.7765 5.51545 20.7526C5.86918 20.7354 5.98606 20.8554 5.943 21.2392C5.91531 21.4756 5.93684 21.7189 5.93684 21.9485C4.80186 22.2843 3.77145 21.4756 3.6884 20.2146C3.68225 20.1152 3.67918 20.0124 3.67918 19.9096C3.66995 18.8062 3.48232 18.5183 2.55957 18.1996V17.0071Z" fill="white"/>
<path d="M18.9316 20.1225V18.93C20.1466 18.649 21.0847 19.4303 21.1709 20.777C21.177 20.8901 21.1739 21.0066 21.1739 21.1197C21.177 22.0689 21.4477 22.4493 22.2812 22.672V23.8714C21.4323 24.1044 21.177 24.4711 21.1739 25.4546C21.1709 26.6197 20.7618 27.3461 19.9251 27.586C19.6145 27.6751 19.2823 27.658 18.9347 27.6922V26.4209C19.0854 26.4209 19.2208 26.4243 19.353 26.4209C19.8267 26.4038 20.042 26.1742 20.0359 25.6396C20.0297 24.9817 20.0728 24.3443 20.4234 23.7823C20.5342 23.6075 20.6603 23.443 20.7956 23.2546C20.1681 22.6103 20.0082 21.7811 20.0359 20.8695C20.0512 20.3658 19.8236 20.1362 19.3623 20.1191C19.2269 20.1122 19.0947 20.1191 18.9347 20.1191L18.9316 20.1225Z" fill="white"/>
<path d="M17.7728 16.3945V17.5802H9.33887V16.3945H17.7759H17.7728Z" fill="#F4AB1D"/>
<path d="M7.06836 25.1281V23.9355H15.5085V25.1281H7.06836Z" fill="#F4AB1D"/>
<path d="M8.17928 16.3906V17.5763H7.07812V16.3906H8.17928Z" fill="#F4AB1D"/>
<path d="M16.6836 23.9297H17.7601V25.1359H16.6836V23.9297Z" fill="#F4AB1D"/>
<path d="M31.8878 10.0676C31.8817 13.5286 29.3718 16.3385 26.2652 16.3557C23.1739 16.3728 20.5995 13.5115 20.6025 10.0573C20.6056 6.59282 23.1678 3.75546 26.2713 3.77945C29.3933 3.80344 31.894 6.6031 31.8878 10.0641V10.0676ZM26.2682 15.0878C28.7597 15.0775 30.7836 12.8055 30.7682 10.0367C30.7528 7.2816 28.7197 5.03364 26.2529 5.03364C23.7645 5.03364 21.7375 7.29873 21.7437 10.0744C21.7498 12.8569 23.7707 15.0981 26.2682 15.0912V15.0878Z" fill="white"/>
<path d="M26.2372 12.5725C24.9946 12.5622 23.9888 11.4245 24.0011 10.0401C24.0134 8.67623 25.0253 7.55225 26.2495 7.54883C27.4768 7.54883 28.5164 8.70365 28.5103 10.0709C28.5041 11.4485 27.4768 12.5827 26.2372 12.5725ZM27.3691 10.0675C27.3691 9.36159 26.8801 8.81673 26.2465 8.81673C25.6221 8.81673 25.1145 9.389 25.1238 10.0778C25.133 10.7494 25.6374 11.3114 26.2403 11.3183C26.8585 11.3285 27.3691 10.7631 27.3691 10.0641V10.0675Z" fill="#F4AB1D"/>
</g>
<defs>
<clipPath id="clip0_1_10248">
<rect width="35" height="39" fill="white" transform="translate(0.283203)"/>
</clipPath>
</defs>
</svg>
