<svg width="1920" height="500" viewBox="0 0 1920 500" fill="none" xmlns="http://www.w3.org/2000/svg">
<mask id="mask0_1_5531" style="mask-type:alpha" maskUnits="userSpaceOnUse" x="3" y="0" width="1918" height="497">
<path d="M3 0H1921V497H3V0Z" fill="#131417"/>
</mask>
<g mask="url(#mask0_1_5531)">
<path d="M2165.24 554.967C2165.24 664.122 2055.1 752.785 1919 752.785C1782.9 752.785 1672.76 664.122 1672.76 554.967C1672.76 445.811 1782.9 357.148 1919 357.148C2055.1 357.148 2165.24 445.811 2165.24 554.967Z" stroke="#F4AB1D"/>
<path d="M2103.38 560.212C2103.38 637.023 2025.86 699.466 1930 699.466C1834.14 699.466 1756.62 637.023 1756.62 560.212C1756.62 483.401 1834.14 420.959 1930 420.959C2025.86 420.959 2103.38 483.401 2103.38 560.212Z" stroke="#F4AB1D"/>
<path d="M2130.19 560.212C2130.19 650.189 2039.39 723.305 1927.15 723.305C1814.91 723.305 1724.11 650.189 1724.11 560.212C1724.11 470.235 1814.91 397.119 1927.15 397.119C2039.39 397.119 2130.19 470.235 2130.19 560.212Z" stroke="white"/>
<path d="M2078.67 563.91C2078.67 627.206 2014.79 678.692 1935.74 678.692C1856.69 678.692 1792.81 627.206 1792.81 563.91C1792.81 500.613 1856.69 449.127 1935.74 449.127C2014.79 449.127 2078.67 500.613 2078.67 563.91Z" stroke="white"/>
<g filter="url(#filter0_f_1_5531)">
<path d="M87.4112 253.72C87.4112 335.395 7.44611 401.758 -91.4018 401.758C-190.25 401.758 -270.215 335.395 -270.215 253.72C-270.215 172.044 -190.25 105.682 -91.4018 105.682C7.44611 105.682 87.4112 172.044 87.4112 253.72Z" stroke="#F4AB1D"/>
<path d="M42.4553 257.648C42.4553 315.098 -13.8021 361.822 -83.4052 361.822C-153.008 361.822 -209.266 315.098 -209.266 257.648C-209.266 200.199 -153.008 153.475 -83.4052 153.475C-13.8021 153.475 42.4553 200.199 42.4553 257.648Z" stroke="#F4AB1D"/>
<path d="M61.9324 257.648C61.9324 324.959 -3.97546 379.677 -85.483 379.677C-166.991 379.677 -232.898 324.959 -232.898 257.648C-232.898 190.337 -166.991 135.619 -85.483 135.619C-3.97546 135.619 61.9324 190.337 61.9324 257.648Z" stroke="white"/>
<path d="M24.497 260.418C24.497 307.745 -21.8544 346.263 -79.2378 346.263C-136.621 346.263 -182.973 307.745 -182.973 260.418C-182.973 213.09 -136.621 174.572 -79.2378 174.572C-21.8544 174.572 24.497 213.09 24.497 260.418Z" stroke="white"/>
</g>
</g>
<defs>
<filter id="filter0_f_1_5531" x="-287.715" y="88.1816" width="392.626" height="331.076" filterUnits="userSpaceOnUse" color-interpolation-filters="sRGB">
<feFlood flood-opacity="0" result="BackgroundImageFix"/>
<feBlend mode="normal" in="SourceGraphic" in2="BackgroundImageFix" result="shape"/>
<feGaussianBlur stdDeviation="8.5" result="effect1_foregroundBlur_1_5531"/>
</filter>
</defs>
</svg>
