<svg width="727" height="1241" viewBox="0 0 727 1241" fill="none" xmlns="http://www.w3.org/2000/svg">
<g opacity="0.6" clip-path="url(#clip0_1_5333)">
<path d="M572.823 808.919L573.264 807.39L619.433 643.022L621.205 643.522L575.493 806.351L747.216 763.648L747.584 764.21L912.778 1018.81L911.23 1019.82L746.379 765.773L572.823 808.919Z" fill="white" fill-opacity="0.24"/>
<path d="M421.433 631.82L421.008 628.496L573.453 803.796L815.449 507.323L906.377 1020.31L904.54 1020.63L814.326 511.655L573.489 806.675L572.772 805.858L421.433 631.82Z" fill="white" fill-opacity="0.24"/>
<path d="M541.595 446.191L541.508 445.561L496.122 97.1863L817.226 510.995L814.676 510.387L541.586 446.174L541.595 446.191ZM498.868 103.74L543.284 444.662L812.533 507.992L498.868 103.74Z" fill="white" fill-opacity="0.24"/>
<path d="M198.531 507.311L160.063 225.718L160.77 225.462L500.11 98.4976L198.531 507.311ZM162.117 226.933L199.754 502.501L494.88 102.43L162.117 226.933Z" fill="white" fill-opacity="0.24"/>
<path d="M196.423 504.433L534.123 444.694L534.441 446.532L201.854 505.363L420.922 628.923L541.661 444.907L543.21 445.931L421.52 631.393L420.765 630.976L196.423 504.433Z" fill="white" fill-opacity="0.24"/>
<path d="M483.581 1067.93L420.175 629.496L420.942 629.271L816.215 508.114L815.778 509.726L661.851 1086.79L660.046 1086.3L813.56 510.864L422.257 630.802L484.33 1060.09L572.592 804.939L574.351 805.531L483.581 1067.93Z" fill="white" fill-opacity="0.24"/>
<path d="M543.858 461.577C534.401 463.25 525.38 456.941 523.704 447.481C522.027 438.02 528.33 428.999 537.787 427.326C547.244 425.653 556.265 431.962 557.942 441.422C559.618 450.883 553.316 459.904 543.858 461.577Z" fill="url(#paint0_radial_1_5333)" fill-opacity="0.4"/>
<path d="M575.941 817.683C568.784 818.957 561.935 814.16 560.659 807C559.383 799.841 564.176 792.992 571.333 791.718C578.49 790.445 585.339 795.242 586.615 802.402C587.891 809.561 583.115 816.401 575.941 817.683Z" fill="url(#paint1_radial_1_5333)" fill-opacity="0.4"/>
<path d="M706.172 926.853C699.015 928.127 692.166 923.33 690.89 916.17C689.614 909.011 694.407 902.162 701.563 900.888C708.72 899.615 715.569 904.412 716.845 911.572C718.122 918.731 713.345 925.571 706.172 926.853Z" fill="url(#paint2_radial_1_5333)" fill-opacity="0.4"/>
<path d="M495.898 96.6949L497.659 96.0799L599.313 381.329L815.36 508.684L814.415 510.296L597.799 382.594L597.672 382.282L495.898 96.6949Z" fill="white" fill-opacity="0.24"/>
<path d="M564.601 585.791L670.341 475.729L596.98 381.471L692.57 351.899L726.986 291.848L728.606 292.77L693.811 353.448L600.116 382.46L672.8 475.857L567.141 585.833L618.776 644.309L617.394 645.545L564.601 585.791Z" fill="white" fill-opacity="0.24"/>
<path d="M198.724 504.074L436.578 386.619L401.391 230.424L253.94 192.396L254.406 190.599L402.964 228.916L403.09 229.462L437.632 382.747L497.152 100.141L728.58 291.746L816.031 509.843L618.362 645.887L618.028 645.857L420.242 631.026L420.295 630.108L436.621 388.691L199.554 505.762L198.733 504.09L198.724 504.074ZM438.571 387.254L422.208 629.305L617.833 643.973L813.753 509.151L727.027 292.862L498.337 103.541L438.597 387.261L438.571 387.254Z" fill="white" fill-opacity="0.24"/>
<path d="M439.59 403.505C430.133 405.177 421.111 398.869 419.435 389.408C417.759 379.948 424.061 370.927 433.519 369.254C442.976 367.581 451.997 373.889 453.673 383.35C455.35 392.811 449.047 401.832 439.59 403.505Z" fill="url(#paint3_radial_1_5333)" fill-opacity="0.4"/>
<path d="M402.774 239.305C397.719 240.202 392.889 236.829 391.99 231.772C391.091 226.715 394.461 221.885 399.516 220.988C404.571 220.091 409.401 223.464 410.3 228.521C411.199 233.578 407.829 238.408 402.774 239.305Z" fill="url(#paint4_radial_1_5333)" fill-opacity="0.4"/>
<path d="M255.81 200.653C250.755 201.55 245.925 198.177 245.026 193.12C244.127 188.062 247.497 183.233 252.552 182.336C257.608 181.439 262.437 184.811 263.336 189.869C264.235 194.926 260.866 199.756 255.81 200.653Z" fill="url(#paint5_radial_1_5333)" fill-opacity="0.4"/>
<path d="M569.051 595.57C563.996 596.467 559.166 593.094 558.267 588.037C557.368 582.98 560.738 578.15 565.793 577.253C570.848 576.356 575.678 579.729 576.561 584.795C577.46 589.852 574.09 594.682 569.035 595.579L569.051 595.57Z" fill="url(#paint6_radial_1_5333)" fill-opacity="0.4"/>
<path d="M619.973 656.4C613.643 657.522 607.612 653.297 606.497 646.982C605.381 640.666 609.593 634.619 615.906 633.506C622.236 632.385 628.267 636.609 629.383 642.924C630.498 649.24 626.286 655.288 619.973 656.4Z" fill="url(#paint7_radial_1_5333)" fill-opacity="0.4"/>
<path d="M603.49 392.905C597.16 394.027 591.129 389.802 590.014 383.487C588.899 377.171 593.11 371.124 599.424 370.011C605.737 368.898 611.785 373.114 612.9 379.429C614.015 385.745 609.803 391.793 603.49 392.905Z" fill="url(#paint8_radial_1_5333)" fill-opacity="0.4"/>
<path d="M673.111 487.327C666.781 488.449 660.75 484.224 659.635 477.909C658.52 471.593 662.731 465.546 669.045 464.433C675.358 463.32 681.406 467.536 682.521 473.851C683.645 480.183 679.424 486.215 673.111 487.327Z" fill="url(#paint9_radial_1_5333)" fill-opacity="0.4"/>
<path d="M694.856 363.188C688.526 364.31 682.495 360.085 681.38 353.77C680.256 347.438 684.476 341.407 690.79 340.294C697.103 339.181 703.151 343.397 704.266 349.712C705.39 356.044 701.169 362.075 694.856 363.188Z" fill="url(#paint10_radial_1_5333)" fill-opacity="0.4"/>
<path d="M728.925 298.67C725.408 299.284 722.069 296.945 721.437 293.435C720.806 289.926 723.159 286.578 726.667 285.948C730.175 285.318 733.523 287.673 734.154 291.182C734.77 294.7 732.433 298.04 728.925 298.67Z" fill="url(#paint11_radial_1_5333)" fill-opacity="0.4"/>
<path d="M423.521 643.133C416.364 644.406 409.515 639.609 408.238 632.449C406.962 625.29 411.755 618.441 418.912 617.168C426.078 615.911 432.918 620.691 434.194 627.851C435.47 635.01 430.694 641.85 423.521 643.133Z" fill="url(#paint12_radial_1_5333)" fill-opacity="0.4"/>
<path d="M500.04 114.808C492.883 116.082 486.034 111.285 484.758 104.125C483.482 96.9656 488.275 90.1166 495.432 88.8433C502.588 87.57 509.438 92.3672 510.714 99.5267C511.973 106.695 507.197 113.535 500.04 114.808Z" fill="url(#paint13_radial_1_5333)" fill-opacity="0.4"/>
<path d="M575 809.5L665.5 1087.5L728 1047" stroke="#0F36B6" stroke-opacity="0.33" stroke-width="3"/>
<path d="M616 648L426 804H574L703.5 913.5" stroke="white" stroke-opacity="0.14" stroke-width="3"/>
</g>
<defs>
<radialGradient id="paint0_radial_1_5333" cx="0" cy="0" r="1" gradientUnits="userSpaceOnUse" gradientTransform="translate(540.8 444.484) rotate(79.9518) scale(17.3966 17.3894)">
<stop stop-color="#0D309E"/>
<stop offset="0.68" stop-color="#9AA2A5"/>
<stop offset="0.76" stop-color="#BCC1C3" stop-opacity="0.66"/>
<stop offset="0.84" stop-color="#D9DCDD" stop-opacity="0.38"/>
<stop offset="0.91" stop-color="#EDEFEF" stop-opacity="0.17"/>
<stop offset="0.96" stop-color="#FAFAFA" stop-opacity="0.05"/>
<stop offset="1" stop-color="white" stop-opacity="0"/>
</radialGradient>
<radialGradient id="paint1_radial_1_5333" cx="0" cy="0" r="1" gradientUnits="userSpaceOnUse" gradientTransform="translate(573.604 804.748) rotate(79.9518) scale(13.173 13.1675)">
<stop stop-color="#0D309E"/>
<stop offset="0.68" stop-color="#9AA2A5"/>
<stop offset="0.76" stop-color="#BCC1C3" stop-opacity="0.66"/>
<stop offset="0.84" stop-color="#D9DCDD" stop-opacity="0.38"/>
<stop offset="0.91" stop-color="#EDEFEF" stop-opacity="0.17"/>
<stop offset="0.96" stop-color="#FAFAFA" stop-opacity="0.05"/>
<stop offset="1" stop-color="white" stop-opacity="0"/>
</radialGradient>
<radialGradient id="paint2_radial_1_5333" cx="0" cy="0" r="1" gradientUnits="userSpaceOnUse" gradientTransform="translate(703.834 913.918) rotate(79.9518) scale(13.173 13.1675)">
<stop stop-color="#0D309E"/>
<stop offset="0.68" stop-color="#9AA2A5"/>
<stop offset="0.76" stop-color="#BCC1C3" stop-opacity="0.66"/>
<stop offset="0.84" stop-color="#D9DCDD" stop-opacity="0.38"/>
<stop offset="0.91" stop-color="#EDEFEF" stop-opacity="0.17"/>
<stop offset="0.96" stop-color="#FAFAFA" stop-opacity="0.05"/>
<stop offset="1" stop-color="white" stop-opacity="0"/>
</radialGradient>
<radialGradient id="paint3_radial_1_5333" cx="0" cy="0" r="1" gradientUnits="userSpaceOnUse" gradientTransform="translate(436.541 386.4) rotate(79.9519) scale(17.3966 17.3893)">
<stop stop-color="#0D309E"/>
<stop offset="0.68" stop-color="#9AA2A5"/>
<stop offset="0.76" stop-color="#BCC1C3" stop-opacity="0.66"/>
<stop offset="0.84" stop-color="#D9DCDD" stop-opacity="0.38"/>
<stop offset="0.91" stop-color="#EDEFEF" stop-opacity="0.17"/>
<stop offset="0.96" stop-color="#FAFAFA" stop-opacity="0.05"/>
<stop offset="1" stop-color="white" stop-opacity="0"/>
</radialGradient>
<radialGradient id="paint4_radial_1_5333" cx="0" cy="0" r="1" gradientUnits="userSpaceOnUse" gradientTransform="translate(401.15 230.166) rotate(79.9519) scale(9.30299 9.29912)">
<stop stop-color="#0D309E"/>
<stop offset="0.68" stop-color="#9AA2A5"/>
<stop offset="0.76" stop-color="#BCC1C3" stop-opacity="0.66"/>
<stop offset="0.84" stop-color="#D9DCDD" stop-opacity="0.38"/>
<stop offset="0.91" stop-color="#EDEFEF" stop-opacity="0.17"/>
<stop offset="0.96" stop-color="#FAFAFA" stop-opacity="0.05"/>
<stop offset="1" stop-color="white" stop-opacity="0"/>
</radialGradient>
<radialGradient id="paint5_radial_1_5333" cx="0" cy="0" r="1" gradientUnits="userSpaceOnUse" gradientTransform="translate(254.17 191.504) rotate(79.9518) scale(9.30299 9.29911)">
<stop stop-color="#0D309E"/>
<stop offset="0.68" stop-color="#9AA2A5"/>
<stop offset="0.76" stop-color="#BCC1C3" stop-opacity="0.66"/>
<stop offset="0.84" stop-color="#D9DCDD" stop-opacity="0.38"/>
<stop offset="0.91" stop-color="#EDEFEF" stop-opacity="0.17"/>
<stop offset="0.96" stop-color="#FAFAFA" stop-opacity="0.05"/>
<stop offset="1" stop-color="white" stop-opacity="0"/>
</radialGradient>
<radialGradient id="paint6_radial_1_5333" cx="0" cy="0" r="1" gradientUnits="userSpaceOnUse" gradientTransform="translate(567.389 586.442) rotate(79.9519) scale(9.30298 9.29911)">
<stop stop-color="#0D309E"/>
<stop offset="0.68" stop-color="#9AA2A5"/>
<stop offset="0.76" stop-color="#BCC1C3" stop-opacity="0.66"/>
<stop offset="0.84" stop-color="#D9DCDD" stop-opacity="0.38"/>
<stop offset="0.91" stop-color="#EDEFEF" stop-opacity="0.17"/>
<stop offset="0.96" stop-color="#FAFAFA" stop-opacity="0.05"/>
<stop offset="1" stop-color="white" stop-opacity="0"/>
</radialGradient>
<radialGradient id="paint7_radial_1_5333" cx="0" cy="0" r="1" gradientUnits="userSpaceOnUse" gradientTransform="translate(617.917 644.979) rotate(79.9519) scale(11.6287 11.6239)">
<stop stop-color="#0D309E"/>
<stop offset="0.68" stop-color="#9AA2A5"/>
<stop offset="0.76" stop-color="#BCC1C3" stop-opacity="0.66"/>
<stop offset="0.84" stop-color="#D9DCDD" stop-opacity="0.38"/>
<stop offset="0.91" stop-color="#EDEFEF" stop-opacity="0.17"/>
<stop offset="0.96" stop-color="#FAFAFA" stop-opacity="0.05"/>
<stop offset="1" stop-color="white" stop-opacity="0"/>
</radialGradient>
<radialGradient id="paint8_radial_1_5333" cx="0" cy="0" r="1" gradientUnits="userSpaceOnUse" gradientTransform="translate(601.429 381.478) rotate(79.9519) scale(11.6287 11.6239)">
<stop stop-color="#0D309E"/>
<stop offset="0.68" stop-color="#9AA2A5"/>
<stop offset="0.76" stop-color="#BCC1C3" stop-opacity="0.66"/>
<stop offset="0.84" stop-color="#D9DCDD" stop-opacity="0.38"/>
<stop offset="0.91" stop-color="#EDEFEF" stop-opacity="0.17"/>
<stop offset="0.96" stop-color="#FAFAFA" stop-opacity="0.05"/>
<stop offset="1" stop-color="white" stop-opacity="0"/>
</radialGradient>
<radialGradient id="paint9_radial_1_5333" cx="0" cy="0" r="1" gradientUnits="userSpaceOnUse" gradientTransform="translate(671.049 475.92) rotate(79.9518) scale(11.6287 11.6239)">
<stop stop-color="#0D309E"/>
<stop offset="0.68" stop-color="#9AA2A5"/>
<stop offset="0.76" stop-color="#BCC1C3" stop-opacity="0.66"/>
<stop offset="0.84" stop-color="#D9DCDD" stop-opacity="0.38"/>
<stop offset="0.91" stop-color="#EDEFEF" stop-opacity="0.17"/>
<stop offset="0.96" stop-color="#FAFAFA" stop-opacity="0.05"/>
<stop offset="1" stop-color="white" stop-opacity="0"/>
</radialGradient>
<radialGradient id="paint10_radial_1_5333" cx="0" cy="0" r="1" gradientUnits="userSpaceOnUse" gradientTransform="translate(692.814 351.768) rotate(79.9519) scale(11.6287 11.6239)">
<stop stop-color="#0D309E"/>
<stop offset="0.68" stop-color="#9AA2A5"/>
<stop offset="0.76" stop-color="#BCC1C3" stop-opacity="0.66"/>
<stop offset="0.84" stop-color="#D9DCDD" stop-opacity="0.38"/>
<stop offset="0.91" stop-color="#EDEFEF" stop-opacity="0.17"/>
<stop offset="0.96" stop-color="#FAFAFA" stop-opacity="0.05"/>
<stop offset="1" stop-color="white" stop-opacity="0"/>
</radialGradient>
<radialGradient id="paint11_radial_1_5333" cx="0" cy="0" r="1" gradientUnits="userSpaceOnUse" gradientTransform="translate(727.784 292.336) rotate(79.9518) scale(6.45628 6.45359)">
<stop stop-color="#0D309E"/>
<stop offset="0.68" stop-color="#9AA2A5"/>
<stop offset="0.76" stop-color="#BCC1C3" stop-opacity="0.66"/>
<stop offset="0.84" stop-color="#D9DCDD" stop-opacity="0.38"/>
<stop offset="0.91" stop-color="#EDEFEF" stop-opacity="0.17"/>
<stop offset="0.96" stop-color="#FAFAFA" stop-opacity="0.05"/>
<stop offset="1" stop-color="white" stop-opacity="0"/>
</radialGradient>
<radialGradient id="paint12_radial_1_5333" cx="0" cy="0" r="1" gradientUnits="userSpaceOnUse" gradientTransform="translate(421.201 630.173) rotate(79.9518) scale(13.173 13.1675)">
<stop stop-color="#0D309E"/>
<stop offset="0.68" stop-color="#9AA2A5"/>
<stop offset="0.76" stop-color="#BCC1C3" stop-opacity="0.66"/>
<stop offset="0.84" stop-color="#D9DCDD" stop-opacity="0.38"/>
<stop offset="0.91" stop-color="#EDEFEF" stop-opacity="0.17"/>
<stop offset="0.96" stop-color="#FAFAFA" stop-opacity="0.05"/>
<stop offset="1" stop-color="white" stop-opacity="0"/>
</radialGradient>
<radialGradient id="paint13_radial_1_5333" cx="0" cy="0" r="1" gradientUnits="userSpaceOnUse" gradientTransform="translate(497.75 101.865) rotate(79.9518) scale(13.173 13.1675)">
<stop stop-color="#0D309E"/>
<stop offset="0.68" stop-color="#9AA2A5"/>
<stop offset="0.76" stop-color="#BCC1C3" stop-opacity="0.66"/>
<stop offset="0.84" stop-color="#D9DCDD" stop-opacity="0.38"/>
<stop offset="0.91" stop-color="#EDEFEF" stop-opacity="0.17"/>
<stop offset="0.96" stop-color="#FAFAFA" stop-opacity="0.05"/>
<stop offset="1" stop-color="white" stop-opacity="0"/>
</radialGradient>
<clipPath id="clip0_1_5333">
<rect width="1056" height="656" fill="white" transform="translate(576.836) rotate(61.5608)"/>
</clipPath>
</defs>
</svg>
