<svg width="795" height="987" viewBox="0 0 795 987" fill="none" xmlns="http://www.w3.org/2000/svg">
<g opacity="0.6" clip-path="url(#clip0_1_5265)">
<path d="M307.179 347.062L308.347 347.885L433.111 437.038L433.995 435.643L310.415 347.309L448.305 276.621L448.225 276.007L507.543 186.462L446.533 275.61L307.179 347.062Z" fill="white" fill-opacity="0.14"/>
<path d="M160.575 355.293L304.461 555.109L314.322 367.078L669.837 411.514L512.518 173.937L666.439 409.544L312.646 365.34L312.595 366.221L302.812 552.893L160.575 355.293Z" fill="white" fill-opacity="0.14"/>
<path d="M502.64 600.647L502.95 601.086L677.011 842.602L668.505 406.057L666.975 407.862L502.643 600.662L502.64 600.647ZM675.14 836.998L504.804 600.648L666.813 410.548L675.14 836.998Z" fill="white" fill-opacity="0.14"/>
<path d="M312.669 359.402L303.245 554.955L303.948 554.665L669.473 408.408L668.187 407.653L461.631 287.113L468.561 291.157L665.863 408.19L304.011 552.979L311.717 360.754L312.669 359.402Z" fill="white" fill-opacity="0.14"/>
<path d="M495.144 589.834C487.13 594.094 484.198 603.06 488.595 609.867C492.993 616.675 503.049 618.74 511.063 614.48C519.077 610.22 522.009 601.254 517.612 594.447C513.214 587.639 503.159 585.574 495.144 589.834Z" fill="url(#paint0_radial_1_5265)" fill-opacity="0.4"/>
<path d="M306.602 350.973C300.533 354.192 298.311 361.005 301.634 366.16C304.956 371.316 312.596 372.88 318.666 369.661C324.735 366.442 326.956 359.629 323.634 354.474C320.312 349.318 312.689 347.751 306.602 350.973Z" fill="url(#paint1_radial_1_5265)" fill-opacity="0.4"/>
<path d="M677.139 843.031L678.812 842.426L584.142 608.548L668.5 408.534L666.837 408.064L582.264 608.612L582.357 608.876L677.139 843.031Z" fill="white" fill-opacity="0.14"/>
<path d="M436.466 501.166L580.551 510.208L582.325 609.767L670.884 574.567L670.88 572.911L584.063 607.397L582.299 508.751L438.325 499.717L441.767 434.522L440.005 434.53L436.466 501.166Z" fill="white" fill-opacity="0.14"/>
<path d="M433.937 492.609C429.651 494.884 428.079 499.682 430.427 503.322C432.776 506.963 438.156 508.071 442.442 505.796C446.728 503.52 448.3 498.723 445.934 495.086C443.585 491.446 438.205 490.337 433.919 492.613L433.937 492.609Z" fill="url(#paint2_radial_1_5265)" fill-opacity="0.4"/>
<path d="M435.447 426.353C430.081 429.203 428.125 435.202 431.064 439.744C434.003 444.286 440.734 445.678 446.081 442.832C451.447 439.982 453.403 433.983 450.464 429.441C447.525 424.899 440.794 423.507 435.447 426.353Z" fill="url(#paint3_radial_1_5265)" fill-opacity="0.4"/>
<path d="M444.559 270.499C439.193 273.349 437.237 279.348 440.176 283.89C443.115 288.432 449.846 289.824 455.193 286.978C460.541 284.132 462.515 278.129 459.576 273.587C456.637 269.045 449.906 267.653 444.559 270.499Z" fill="url(#paint4_radial_1_5265)" fill-opacity="0.4"/>
<path d="M580.337 599.029C574.972 601.878 573.016 607.877 575.954 612.419C578.893 616.961 585.624 618.353 590.972 615.507C596.32 612.661 598.293 606.659 595.354 602.117C592.416 597.574 585.685 596.182 580.337 599.029Z" fill="url(#paint5_radial_1_5265)" fill-opacity="0.4"/>
<path d="M575.69 501.462C570.325 504.312 568.369 510.31 571.308 514.853C574.247 519.395 580.978 520.787 586.325 517.941C591.673 515.094 593.646 509.092 590.708 504.55C587.766 499.993 581.038 498.616 575.69 501.462Z" fill="url(#paint6_radial_1_5265)" fill-opacity="0.4"/>
<path d="M665.848 566.285C660.483 569.135 658.527 575.133 661.466 579.676C664.408 584.233 671.135 585.61 676.483 582.764C681.831 579.917 683.804 573.915 680.866 569.373C677.924 564.816 671.196 563.439 665.848 566.285Z" fill="url(#paint7_radial_1_5265)" fill-opacity="0.4"/>
<path d="M297.597 544.624C291.528 547.843 289.307 554.655 292.629 559.81C295.951 564.966 303.591 566.53 309.661 563.311C315.727 560.077 317.952 553.28 314.629 548.124C311.307 542.968 303.684 541.401 297.597 544.624Z" fill="url(#paint8_radial_1_5265)" fill-opacity="0.4"/>
<path d="M669.411 829.475C663.341 832.694 661.12 839.507 664.442 844.662C667.765 849.818 675.405 851.382 681.474 848.163C687.544 844.944 689.765 838.131 686.443 832.976C683.103 827.824 675.48 826.256 669.411 829.475Z" fill="url(#paint9_radial_1_5265)" fill-opacity="0.4"/>
<path d="M659.709 395.977C651.694 400.236 648.762 409.203 653.16 416.01C657.558 422.817 667.613 424.883 675.627 420.623C683.642 416.363 686.574 407.397 682.176 400.589C677.778 393.782 667.723 391.717 659.709 395.977Z" fill="url(#paint10_radial_1_5265)" fill-opacity="0.4"/>
</g>
<defs>
<radialGradient id="paint0_radial_1_5265" cx="0" cy="0" r="1" gradientUnits="userSpaceOnUse" gradientTransform="translate(503.067 602.15) rotate(-122.863) scale(14.6738 16.3742)">
<stop stop-color="#0D309E"/>
<stop offset="0.68" stop-color="#9AA2A5"/>
<stop offset="0.76" stop-color="#BCC1C3" stop-opacity="0.66"/>
<stop offset="0.84" stop-color="#D9DCDD" stop-opacity="0.38"/>
<stop offset="0.91" stop-color="#EDEFEF" stop-opacity="0.17"/>
<stop offset="0.96" stop-color="#FAFAFA" stop-opacity="0.05"/>
<stop offset="1" stop-color="white" stop-opacity="0"/>
</radialGradient>
<radialGradient id="paint1_radial_1_5265" cx="0" cy="0" r="1" gradientUnits="userSpaceOnUse" gradientTransform="translate(312.581 360.307) rotate(-122.863) scale(11.1113 12.3988)">
<stop stop-color="#0D309E"/>
<stop offset="0.68" stop-color="#9AA2A5"/>
<stop offset="0.76" stop-color="#BCC1C3" stop-opacity="0.66"/>
<stop offset="0.84" stop-color="#D9DCDD" stop-opacity="0.38"/>
<stop offset="0.91" stop-color="#EDEFEF" stop-opacity="0.17"/>
<stop offset="0.96" stop-color="#FAFAFA" stop-opacity="0.05"/>
<stop offset="1" stop-color="white" stop-opacity="0"/>
</radialGradient>
<radialGradient id="paint2_radial_1_5265" cx="0" cy="0" r="1" gradientUnits="userSpaceOnUse" gradientTransform="translate(438.146 499.202) rotate(-122.863) scale(7.84694 8.75624)">
<stop stop-color="#0D309E"/>
<stop offset="0.68" stop-color="#9AA2A5"/>
<stop offset="0.76" stop-color="#BCC1C3" stop-opacity="0.66"/>
<stop offset="0.84" stop-color="#D9DCDD" stop-opacity="0.38"/>
<stop offset="0.91" stop-color="#EDEFEF" stop-opacity="0.17"/>
<stop offset="0.96" stop-color="#FAFAFA" stop-opacity="0.05"/>
<stop offset="1" stop-color="white" stop-opacity="0"/>
</radialGradient>
<radialGradient id="paint3_radial_1_5265" cx="0" cy="0" r="1" gradientUnits="userSpaceOnUse" gradientTransform="translate(440.732 434.589) rotate(-122.863) scale(9.80867 10.9453)">
<stop stop-color="#0D309E"/>
<stop offset="0.68" stop-color="#9AA2A5"/>
<stop offset="0.76" stop-color="#BCC1C3" stop-opacity="0.66"/>
<stop offset="0.84" stop-color="#D9DCDD" stop-opacity="0.38"/>
<stop offset="0.91" stop-color="#EDEFEF" stop-opacity="0.17"/>
<stop offset="0.96" stop-color="#FAFAFA" stop-opacity="0.05"/>
<stop offset="1" stop-color="white" stop-opacity="0"/>
</radialGradient>
<radialGradient id="paint4_radial_1_5265" cx="0" cy="0" r="1" gradientUnits="userSpaceOnUse" gradientTransform="translate(449.815 278.737) rotate(-122.863) scale(9.80869 10.9453)">
<stop stop-color="#0D309E"/>
<stop offset="0.68" stop-color="#9AA2A5"/>
<stop offset="0.76" stop-color="#BCC1C3" stop-opacity="0.66"/>
<stop offset="0.84" stop-color="#D9DCDD" stop-opacity="0.38"/>
<stop offset="0.91" stop-color="#EDEFEF" stop-opacity="0.17"/>
<stop offset="0.96" stop-color="#FAFAFA" stop-opacity="0.05"/>
<stop offset="1" stop-color="white" stop-opacity="0"/>
</radialGradient>
<radialGradient id="paint5_radial_1_5265" cx="0" cy="0" r="1" gradientUnits="userSpaceOnUse" gradientTransform="translate(585.622 607.272) rotate(-122.863) scale(9.80868 10.9453)">
<stop stop-color="#0D309E"/>
<stop offset="0.68" stop-color="#9AA2A5"/>
<stop offset="0.76" stop-color="#BCC1C3" stop-opacity="0.66"/>
<stop offset="0.84" stop-color="#D9DCDD" stop-opacity="0.38"/>
<stop offset="0.91" stop-color="#EDEFEF" stop-opacity="0.17"/>
<stop offset="0.96" stop-color="#FAFAFA" stop-opacity="0.05"/>
<stop offset="1" stop-color="white" stop-opacity="0"/>
</radialGradient>
<radialGradient id="paint6_radial_1_5265" cx="0" cy="0" r="1" gradientUnits="userSpaceOnUse" gradientTransform="translate(580.963 509.692) rotate(-122.863) scale(9.80868 10.9453)">
<stop stop-color="#0D309E"/>
<stop offset="0.68" stop-color="#9AA2A5"/>
<stop offset="0.76" stop-color="#BCC1C3" stop-opacity="0.66"/>
<stop offset="0.84" stop-color="#D9DCDD" stop-opacity="0.38"/>
<stop offset="0.91" stop-color="#EDEFEF" stop-opacity="0.17"/>
<stop offset="0.96" stop-color="#FAFAFA" stop-opacity="0.05"/>
<stop offset="1" stop-color="white" stop-opacity="0"/>
</radialGradient>
<radialGradient id="paint7_radial_1_5265" cx="0" cy="0" r="1" gradientUnits="userSpaceOnUse" gradientTransform="translate(671.143 574.513) rotate(-122.863) scale(9.80868 10.9453)">
<stop stop-color="#0D309E"/>
<stop offset="0.68" stop-color="#9AA2A5"/>
<stop offset="0.76" stop-color="#BCC1C3" stop-opacity="0.66"/>
<stop offset="0.84" stop-color="#D9DCDD" stop-opacity="0.38"/>
<stop offset="0.91" stop-color="#EDEFEF" stop-opacity="0.17"/>
<stop offset="0.96" stop-color="#FAFAFA" stop-opacity="0.05"/>
<stop offset="1" stop-color="white" stop-opacity="0"/>
</radialGradient>
<radialGradient id="paint8_radial_1_5265" cx="0" cy="0" r="1" gradientUnits="userSpaceOnUse" gradientTransform="translate(303.604 553.961) rotate(-122.863) scale(11.1113 12.3988)">
<stop stop-color="#0D309E"/>
<stop offset="0.68" stop-color="#9AA2A5"/>
<stop offset="0.76" stop-color="#BCC1C3" stop-opacity="0.66"/>
<stop offset="0.84" stop-color="#D9DCDD" stop-opacity="0.38"/>
<stop offset="0.91" stop-color="#EDEFEF" stop-opacity="0.17"/>
<stop offset="0.96" stop-color="#FAFAFA" stop-opacity="0.05"/>
<stop offset="1" stop-color="white" stop-opacity="0"/>
</radialGradient>
<radialGradient id="paint9_radial_1_5265" cx="0" cy="0" r="1" gradientUnits="userSpaceOnUse" gradientTransform="translate(675.43 838.787) rotate(-122.863) scale(11.1113 12.3988)">
<stop stop-color="#0D309E"/>
<stop offset="0.68" stop-color="#9AA2A5"/>
<stop offset="0.76" stop-color="#BCC1C3" stop-opacity="0.66"/>
<stop offset="0.84" stop-color="#D9DCDD" stop-opacity="0.38"/>
<stop offset="0.91" stop-color="#EDEFEF" stop-opacity="0.17"/>
<stop offset="0.96" stop-color="#FAFAFA" stop-opacity="0.05"/>
<stop offset="1" stop-color="white" stop-opacity="0"/>
</radialGradient>
<radialGradient id="paint10_radial_1_5265" cx="0" cy="0" r="1" gradientUnits="userSpaceOnUse" gradientTransform="translate(667.63 408.287) rotate(-122.863) scale(14.6738 16.3742)">
<stop stop-color="#0D309E"/>
<stop offset="0.68" stop-color="#9AA2A5"/>
<stop offset="0.76" stop-color="#BCC1C3" stop-opacity="0.66"/>
<stop offset="0.84" stop-color="#D9DCDD" stop-opacity="0.38"/>
<stop offset="0.91" stop-color="#EDEFEF" stop-opacity="0.17"/>
<stop offset="0.96" stop-color="#FAFAFA" stop-opacity="0.05"/>
<stop offset="1" stop-color="white" stop-opacity="0"/>
</radialGradient>
<clipPath id="clip0_1_5265">
<rect width="876.475" height="627.744" fill="white" transform="matrix(-0.206021 -0.978548 -0.978548 0.206021 794.85 857.672)"/>
</clipPath>
</defs>
</svg>
