<svg width="16" height="14" viewBox="0 0 16 14" fill="none" xmlns="http://www.w3.org/2000/svg">
<path d="M13.5833 6.16011H0.863483C0.681975 6.16011 0.507902 6.23222 0.379557 6.36056C0.251211 6.48891 0.179108 6.66298 0.179108 6.84449C0.179108 7.02599 0.251211 7.20007 0.379557 7.32841C0.507902 7.45676 0.681975 7.52886 0.863483 7.52886H13.5833L8.59144 12.5193C8.46294 12.6478 8.39074 12.8221 8.39074 13.0039C8.39074 13.1856 8.46294 13.3599 8.59144 13.4884C8.71995 13.6169 8.89425 13.6891 9.07598 13.6891C9.25772 13.6891 9.43201 13.6169 9.56052 13.4884L15.7199 7.32902C15.7836 7.26545 15.8342 7.18993 15.8687 7.10678C15.9032 7.02364 15.921 6.93451 15.921 6.84449C15.921 6.75447 15.9032 6.66533 15.8687 6.58219C15.8342 6.49904 15.7836 6.42352 15.7199 6.35995L9.56052 0.20058C9.43201 0.0720724 9.25772 -0.00012207 9.07598 -0.00012207C8.89425 -0.00012207 8.71995 0.0720724 8.59144 0.20058C8.46294 0.329087 8.39074 0.50338 8.39074 0.685117C8.39074 0.866854 8.46294 1.04115 8.59144 1.16965L13.5833 6.16011Z" fill="#0D309E"/>
</svg>
