<svg width="30" height="24" viewBox="0 0 30 24" fill="none" xmlns="http://www.w3.org/2000/svg">
<path d="M15 0C10.17 0 3.90099 1.14407 3.90099 1.14407L3.88522 1.16112C1.68538 1.49372 0 3.28075 0 5.45406V11.9989V12.0011V18.5438V18.5459C0.00214668 19.5839 0.395619 20.5871 1.10977 21.3755C1.82391 22.1639 2.81196 22.6857 3.89648 22.8474L3.90099 22.8538C3.90099 22.8538 10.17 24 15 24C19.83 24 26.099 22.8538 26.099 22.8538L26.1013 22.8517C27.187 22.6903 28.1761 22.168 28.8908 21.3787C29.6055 20.5894 29.9988 19.5849 30 18.5459V18.5438V12.0011V11.9989V5.45406C29.9984 4.41575 29.6052 3.41201 28.891 2.62319C28.1768 1.83438 27.1884 1.31219 26.1035 1.15047L26.099 1.14407C26.099 1.14407 19.83 0 15 0ZM11.5385 6.9795L20.7692 11.9989L11.5385 17.0184V6.9795Z" fill="white"/>
</svg>
