<svg width="63" height="63" viewBox="0 0 63 63" fill="none" xmlns="http://www.w3.org/2000/svg">
<path d="M46.6012 36.0947C46.4786 36.0371 41.8905 33.8264 41.0752 33.5393C40.7423 33.4223 40.3858 33.3081 40.0065 33.3081C39.387 33.3081 38.8666 33.6102 38.4612 34.2037C38.0028 34.8703 36.6154 36.4572 36.1867 36.9312C36.1307 36.9938 36.0543 37.0686 36.0085 37.0686C35.9675 37.0686 35.2574 36.7825 35.0425 36.6911C30.1207 34.5991 26.3849 29.5685 25.8726 28.7201C25.7994 28.5982 25.7964 28.5428 25.7958 28.5428C25.8138 28.4782 25.9793 28.3159 26.0647 28.2321C26.3146 27.9902 26.5853 27.6713 26.8473 27.3628C26.9713 27.2166 27.0955 27.0702 27.2175 26.9323C27.5976 26.4996 27.7668 26.1637 27.9629 25.7746L28.0657 25.5725C28.5447 24.6414 28.1356 23.8556 28.0034 23.6019C27.8949 23.3896 25.9576 18.8146 25.7516 18.3339C25.2563 17.1741 24.6019 16.634 23.6924 16.634C23.608 16.634 23.6924 16.634 23.3385 16.6486C22.9075 16.6664 20.5608 16.9687 19.5232 17.6087C18.4228 18.2875 16.5613 20.4513 16.5613 24.2565C16.5613 27.6813 18.7824 30.9149 19.7361 32.1447C19.7598 32.1757 19.8033 32.2387 19.8664 32.329C23.5185 37.5478 28.0712 41.4155 32.6865 43.2195C37.1297 44.9562 39.2337 45.1569 40.4299 45.1569L40.4301 45.1569C40.9328 45.1569 41.3351 45.1183 41.69 45.0841L41.9152 45.0632C43.4502 44.93 46.8233 43.2197 47.5906 41.1334C48.195 39.4901 48.3544 37.6946 47.9522 37.043C47.6768 36.5999 47.2021 36.377 46.6012 36.0947Z" fill="#20E21C"/>
<path d="M32.0586 0.709473C15.0139 0.709473 1.14704 14.1762 1.14704 30.7289C1.14704 36.0827 2.61129 41.3233 5.38511 45.9099L0.0759245 61.2342C-0.0229727 61.5199 0.0505872 61.8358 0.266567 62.0509C0.422474 62.2067 0.633958 62.2907 0.849939 62.2907C0.932694 62.2907 1.01606 62.2785 1.09739 62.2531L17.4277 57.1754C21.8965 59.5117 26.9472 60.7449 32.0588 60.7449C49.1018 60.7451 62.9672 47.2799 62.9672 30.7289C62.9672 14.1762 49.1018 0.709473 32.0586 0.709473ZM32.0586 54.4918C27.2488 54.4918 22.5902 53.1329 18.5857 50.5616C18.451 50.4751 18.2947 50.4307 18.1373 50.4307C18.0542 50.4307 17.9708 50.4431 17.8897 50.4683L9.70921 53.0127L12.35 45.3892C12.4354 45.1425 12.3927 44.8704 12.2354 44.6601C9.18592 40.5829 7.57393 35.7658 7.57393 30.7289C7.57393 17.6243 18.5577 6.96276 32.0584 6.96276C45.5574 6.96276 56.5399 17.6243 56.5399 30.7289C56.5401 43.8319 45.5578 54.4918 32.0586 54.4918Z" fill="#20E21C"/>
</svg>
